<svg width="320" height="210" viewBox="0 0 320 210" fill="none" xmlns="http://www.w3.org/2000/svg">
<path fill-rule="evenodd" clip-rule="evenodd" d="M318.907 100.672H181.145V13.8347H137.762V100.672H0V0H318.907V100.672ZM13.8851 86.8376H123.877V13.8347H13.8851V86.8376ZM195.03 86.8376H305.022V13.8347H195.03V86.8376Z" fill="white"/>
<path d="M8.49952 192.296V115.822H13.4157V152.639L48.4848 115.822H54.9305L22.7019 149.252L55.2583 192.296H49.031L19.0967 152.857L13.4157 158.975V192.296H8.49952Z" fill="white"/>
<path d="M92.8097 193.607C87.8571 193.607 83.3415 192.624 79.2628 190.658C75.257 188.618 72.0524 185.523 69.6489 181.371C67.2454 177.147 66.0436 171.721 66.0436 165.093V115.822H70.9599V164.984C70.9599 170.665 71.9067 175.29 73.8004 178.859C75.694 182.428 78.2796 185.05 81.5571 186.725C84.9074 188.327 88.6583 189.128 92.8097 189.128C97.1069 189.128 100.858 188.327 104.062 186.725C107.34 185.05 109.889 182.428 111.71 178.859C113.531 175.29 114.441 170.665 114.441 164.984V115.822H119.357V165.093C119.357 171.721 118.192 177.147 115.861 181.371C113.531 185.523 110.362 188.618 106.357 190.658C102.351 192.624 97.8352 193.607 92.8097 193.607Z" fill="white"/>
<path d="M136.065 192.296V115.822H141.309L185.992 184.212V115.822H190.908V192.296H185.773L140.981 123.688V192.296H136.065Z" fill="white"/>
<path d="M231.65 193.607C225.751 193.607 220.798 192.551 216.792 190.439C212.859 188.327 209.873 185.45 207.834 181.808C205.867 178.094 204.92 173.942 204.993 169.354H210.128C210.128 172.923 210.856 176.237 212.313 179.296C213.842 182.282 216.173 184.685 219.305 186.506C222.509 188.327 226.588 189.237 231.541 189.237C236.056 189.237 239.734 188.509 242.575 187.052C245.488 185.596 247.673 183.629 249.13 181.153C250.587 178.677 251.315 175.909 251.315 172.85C251.315 169.136 250.477 166.186 248.802 164.001C247.2 161.743 245.051 159.922 242.356 158.538C239.734 157.154 236.785 155.989 233.507 155.042C230.303 154.023 227.134 152.93 224.003 151.765C218.904 149.944 215.008 147.65 212.313 144.882C209.618 142.042 208.271 138.291 208.271 133.629C208.271 130.061 209.108 126.856 210.783 124.016C212.531 121.102 215.081 118.808 218.431 117.133C221.781 115.385 225.86 114.511 230.667 114.511C235.11 114.511 239.043 115.312 242.466 116.914C245.889 118.517 248.584 120.847 250.55 123.906C252.517 126.892 253.5 130.607 253.5 135.05H248.256C248.256 131.627 247.528 128.713 246.071 126.31C244.687 123.906 242.648 122.085 239.953 120.847C237.331 119.536 234.199 118.881 230.558 118.881C226.697 118.881 223.493 119.536 220.944 120.847C218.394 122.085 216.501 123.797 215.263 125.982C214.024 128.094 213.405 130.534 213.405 133.302C213.405 136.434 214.17 138.946 215.7 140.84C217.229 142.734 219.268 144.299 221.818 145.538C224.44 146.703 227.353 147.795 230.558 148.815C233.762 149.835 237.04 151 240.39 152.311C243.449 153.549 246.18 155.006 248.584 156.681C251.06 158.356 252.99 160.468 254.374 163.018C255.831 165.567 256.559 168.771 256.559 172.631C256.559 176.419 255.648 179.915 253.828 183.119C252.007 186.251 249.239 188.8 245.525 190.767C241.883 192.661 237.258 193.607 231.65 193.607Z" fill="white"/>
<path d="M288.526 192.296V119.973H265.365V115.822H316.494V119.973H293.442V192.296H288.526Z" fill="white"/>
</svg>
