<svg width="1278" height="871" viewBox="0 0 1278 871" fill="none" xmlns="http://www.w3.org/2000/svg">
<path d="M528.116 389.932C528.116 389.932 636.945 381.845 636.945 254.1C636.945 126.346 547.909 64 435.125 64H64V777.906H435.125C435.125 777.906 661.684 785.069 661.684 567.194C661.684 567.196 671.562 389.932 528.116 389.932ZM408.412 190.889H435.125C435.125 190.889 485.572 190.889 485.572 265.167C485.572 339.437 455.904 350.205 422.253 350.205H227.523V190.889H408.412ZM424.638 651.022H227.523V460.239H435.125C435.125 460.239 510.314 459.252 510.314 558.282C510.314 641.785 454.156 650.391 424.638 651.022ZM963.839 245.639C689.566 245.639 689.809 519.943 689.809 519.943C689.809 519.943 670.99 792.839 963.839 792.839C963.839 792.839 1207.88 806.795 1207.88 603H1082.37C1082.37 603 1086.56 679.746 968.025 679.746C968.025 679.746 842.5 688.167 842.5 555.542H1212.06C1212.06 555.54 1252.5 245.639 963.839 245.639ZM841.12 460.239C841.12 460.239 856.446 350.203 966.627 350.203C1076.79 350.203 1075.41 460.239 1075.41 460.239H841.12ZM1104.64 193.97H810.394V106.058H1104.64V193.97Z" fill="black"/>
</svg>
