<svg width="872" height="872" viewBox="0 0 872 872" fill="none" xmlns="http://www.w3.org/2000/svg">
<path d="M435.837 64C334.864 64 322.191 64.4422 282.532 66.245C242.949 68.0554 215.933 74.3181 192.292 83.5061C167.839 92.9928 147.093 105.688 126.426 126.347C105.745 146.998 93.0419 167.725 83.5137 192.156C74.2954 215.786 68.0214 242.791 66.2413 282.328C64.4649 321.957 64 334.629 64 435.531C64 536.433 64.4535 549.057 66.2488 588.685C68.0668 628.238 74.337 655.239 83.5213 678.861C93.0268 703.296 105.73 724.027 126.404 744.674C147.063 765.341 167.805 778.066 192.243 787.557C215.903 796.745 242.927 803.007 282.498 804.818C322.161 806.621 334.826 807.063 435.796 807.063C536.777 807.063 549.408 806.621 589.071 804.818C628.654 803.004 655.704 796.745 679.36 787.557C703.806 778.07 724.518 765.341 745.177 744.674C765.858 724.027 778.561 703.296 788.089 678.869C797.228 655.239 803.502 628.231 805.362 588.693C807.146 549.065 807.607 536.433 807.607 435.531C807.607 334.629 807.146 321.968 805.362 282.336C803.502 242.783 797.228 215.786 788.089 192.164C778.561 167.725 765.858 146.998 745.177 126.347C724.495 105.681 703.814 92.9852 679.337 83.5061C655.632 74.3181 628.597 68.0554 589.018 66.245C549.359 64.4422 536.732 64 435.724 64H435.837ZM402.487 130.954C412.385 130.935 423.429 130.954 435.841 130.954C535.114 130.954 546.88 131.31 586.081 133.09C622.331 134.745 642.007 140.8 655.114 145.883C672.462 152.619 684.836 160.669 697.842 173.671C710.855 186.672 718.909 199.058 725.663 216.398C730.754 229.475 736.816 249.136 738.468 285.363C740.248 324.527 740.637 336.292 740.637 435.448C740.637 534.597 740.248 546.362 738.468 585.53C736.809 621.753 730.754 641.414 725.663 654.495C718.924 671.831 710.855 684.179 697.842 697.173C684.829 710.175 672.474 718.225 655.114 724.96C642.022 730.07 622.331 736.11 586.081 737.765C546.888 739.541 535.114 739.931 435.841 739.931C336.561 739.931 324.795 739.545 285.597 737.765C249.348 736.091 229.672 730.04 216.561 724.952C199.209 718.221 186.816 710.171 173.803 697.165C160.786 684.164 152.732 671.809 145.978 654.464C140.887 641.383 134.825 621.722 133.173 585.499C131.393 546.332 131.034 534.566 131.034 435.354C131.034 336.141 131.393 324.436 133.173 285.269C134.832 249.046 140.887 229.385 145.978 216.289C152.717 198.952 160.786 186.566 173.803 173.561C186.816 160.559 199.209 152.509 216.561 145.759C229.664 140.653 249.348 134.613 285.597 132.946C319.897 131.4 333.189 130.935 402.487 130.86V130.954ZM634.308 192.644C609.677 192.644 589.691 212.588 589.691 237.212C589.691 261.824 609.677 281.795 634.308 281.795C658.939 281.795 678.925 261.824 678.925 237.212C678.925 212.596 658.939 192.625 634.308 192.625V192.644ZM435.837 244.733C330.389 244.733 244.896 330.162 244.896 435.531C244.896 540.897 330.389 626.288 435.837 626.288C541.283 626.288 626.741 540.897 626.741 435.531C626.741 330.162 541.275 244.733 435.83 244.733H435.837ZM435.837 311.688C504.281 311.688 559.772 367.133 559.772 435.531C559.772 503.922 504.281 559.375 435.837 559.375C367.386 559.375 311.899 503.922 311.899 435.531C311.899 367.13 367.383 311.688 435.837 311.688Z" fill="black"/>
</svg>
