<svg width="872" height="872" viewBox="0 0 872 872" fill="none" xmlns="http://www.w3.org/2000/svg">
<path fill-rule="evenodd" clip-rule="evenodd" d="M754.113 64H120.083C89.7566 64 64 87.9851 64 117.533V754.432C64 784.015 80.8994 808 111.226 808H745.256C775.618 808 808 784.015 808 754.432V117.533C808 87.9851 784.475 64 754.113 64ZM347.429 347.429H447.585V398.481H448.683C463.953 370.953 509.054 343 564.818 343C671.848 343 701.714 399.827 701.714 505.086V701.714H595.429V524.465C595.429 477.345 576.616 436 532.614 436C479.187 436 453.714 472.173 453.714 531.551V701.714H347.429V347.429ZM170.286 701.714H276.571V347.429H170.286V701.714ZM289.857 223.429C289.861 232.151 288.147 240.788 284.812 248.848C281.478 256.908 276.588 264.232 270.423 270.401C264.257 276.571 256.937 281.466 248.88 284.806C240.823 288.147 232.186 289.867 223.464 289.87C214.742 289.872 206.104 288.156 198.045 284.82C189.986 281.484 182.663 276.593 176.495 270.426C170.326 264.26 165.433 256.939 162.094 248.881C158.755 240.823 157.036 232.186 157.035 223.464C157.034 205.853 164.028 188.962 176.479 176.507C188.929 164.052 205.817 157.053 223.429 157.048C241.04 157.043 257.931 164.034 270.389 176.482C282.846 188.931 289.849 205.817 289.857 223.429Z" fill="black"/>
</svg>
