<svg width="626" height="191" viewBox="0 0 626 191" fill="none" xmlns="http://www.w3.org/2000/svg">
<path d="M14.953 -2.2845e-08C15.6441 24.3869 15.6554 51.7435 14.9529 76.1305C14.2505 51.7435 14.2618 24.3869 14.953 -2.2845e-08Z" fill="black"/>
<path d="M29.9053 101.443L29.9053 89.0656L21.1517 80.312L8.75342 80.312L-0.000141439 89.0656L-0.00014198 101.443L8.75342 110.186L21.1517 110.186L29.9053 101.443Z" fill="#D22729"/>
<path d="M11.4214 93.8006L4.05923 89.9585C3.1766 89.5016 3.0001 88.3179 3.69582 87.6222L7.36128 83.9567C8.06738 83.261 9.24075 83.4375 9.69764 84.3201L13.5397 91.6718C14.1523 92.8452 15.8449 92.8452 16.4575 91.6718L20.2788 84.372C20.7357 83.4894 21.9194 83.3129 22.6151 84.0086L26.2599 87.6429C26.966 88.3386 26.7791 89.5224 25.8964 89.9793L18.5862 93.7902C17.4128 94.4028 17.4024 96.085 18.5862 96.6976L25.9172 100.519C26.7998 100.976 26.9764 102.16 26.2806 102.855L22.5944 106.531C21.8883 107.227 20.7149 107.05 20.258 106.168L16.416 98.8055C15.8034 97.6322 14.1108 97.6322 13.4982 98.8055L9.65612 106.147C9.19924 107.03 8.01548 107.206 7.31976 106.51L3.67503 102.866C2.96893 102.17 3.15581 100.986 4.03844 100.529L11.4318 96.6769C12.6052 96.0642 12.6052 94.382 11.4318 93.759L11.4214 93.8006Z" fill="white"/>
<path d="M14.953 114.367C15.6441 138.754 15.6554 166.11 14.9529 190.497C14.2505 166.11 14.2618 138.754 14.953 114.367Z" fill="black"/>
<path d="M55.1419 60.4238V15.8772H65.5465V34.8173L81.8076 15.8772H93.6451L76.8233 35.1288L94.9535 60.4238H82.0568L70.1569 42.7298L65.5465 48.0255V60.4238H55.1419ZM128.274 60.4238L125.284 51.5145H108.711L105.658 60.4238H94.9423L111.826 15.8772H122.356L139.364 60.4238H128.274ZM122.543 43.4774L117.122 27.3409H116.998L111.453 43.4774H122.543ZM146.584 60.4238V24.475H133.314V15.8772H170.135V24.475H156.989V60.4238H146.584ZM192.003 61.4207C187.6 61.4207 184.028 60.7769 181.287 59.4893C178.587 58.1602 176.614 56.2288 175.368 53.6951C174.164 51.1615 173.561 48.1086 173.561 44.5366V15.8772H184.028V44.5366C184.028 47.5271 184.693 49.6662 186.022 50.9538C187.351 52.1998 189.345 52.8229 192.003 52.8229C194.661 52.8229 196.655 52.1998 197.984 50.9538C199.313 49.6662 199.978 47.5271 199.978 44.5366V15.8772H210.382V44.5366C210.382 48.1086 209.759 51.1615 208.513 53.6951C207.309 56.2288 205.357 58.1602 202.657 59.4893C199.957 60.7769 196.406 61.4207 192.003 61.4207ZM233.81 61.4207C229.989 61.4207 226.625 60.8184 223.717 59.6139C220.851 58.4094 218.608 56.6441 216.988 54.3181C215.41 51.9922 214.6 49.147 214.559 45.7826H225.15C225.192 48.3578 225.96 50.2061 227.455 51.3276C228.992 52.4075 231.069 52.9475 233.686 52.9475C235.472 52.9475 236.946 52.7606 238.109 52.3867C239.272 51.9714 240.144 51.3899 240.726 50.6423C241.307 49.8946 241.598 49.0224 241.598 48.0255C241.598 46.6133 241.1 45.4919 240.103 44.6612C239.106 43.8305 237.694 43.2282 235.866 42.8544L228.888 41.4214C224.735 40.5907 221.454 39.0747 219.044 36.8733C216.635 34.6719 215.431 31.806 215.431 28.2755C215.431 25.2019 216.179 22.689 217.674 20.7368C219.211 18.7431 221.267 17.2686 223.842 16.3133C226.459 15.358 229.387 14.8804 232.627 14.8804C238.151 14.8804 242.533 16.1679 245.772 18.7431C249.054 21.2768 250.777 24.8073 250.944 29.3346H240.352C240.186 27.4656 239.459 26.0118 238.171 24.9734C236.925 23.8935 235.077 23.3536 232.627 23.3536C230.591 23.3536 228.992 23.7274 227.829 24.475C226.666 25.2226 226.085 26.3026 226.085 27.7148C226.085 29.0024 226.583 30.0615 227.58 30.8922C228.577 31.7229 230.093 32.346 232.128 32.7613L239.106 34.1943C243.135 34.9834 246.333 36.3956 248.701 38.4309C251.068 40.4246 252.252 43.3528 252.252 47.2156C252.252 50.0815 251.525 52.5737 250.071 54.692C248.618 56.8103 246.52 58.4717 243.779 59.6762C241.037 60.8392 237.715 61.4207 233.81 61.4207ZM286.835 60.4238L283.845 51.5145H267.272L264.219 60.4238H253.503L270.387 15.8772H280.917L297.925 60.4238H286.835ZM281.104 43.4774L275.683 27.3409H275.559L270.014 43.4774H281.104ZM55.1419 121.424V76.8772H87.8509V85.475H65.5465V95.8796H83.7389V104.477H65.5465V121.424H55.1419ZM109.18 105.537H102.327V121.424H91.9225V76.8772H112.483C117.425 76.8772 121.267 78.1233 124.009 80.6154C126.791 83.1075 128.183 86.638 128.183 91.2069C128.183 94.239 127.56 96.8349 126.314 98.9948C125.068 101.113 123.282 102.733 120.956 103.854C120.54 104.021 120.146 104.187 119.772 104.353L128.806 121.424H117.218L109.18 105.537ZM110.427 97.0011C112.877 97.0011 114.705 96.5442 115.909 95.6304C117.155 94.6751 117.778 93.2006 117.778 91.2069C117.778 89.2132 117.155 87.7594 115.909 86.8457C114.705 85.9319 112.877 85.475 110.427 85.475H102.327V97.0011H110.427ZM131.083 85.475V76.8772H154.197V85.475H147.718V112.826H154.322V121.424H131.207V112.826H137.687V85.475H131.083ZM159.217 121.424V76.8772H192.549V85.475H169.622V94.1974H189.434V102.795H169.622V112.826H192.985V121.424H159.217ZM197.945 121.424V76.8772H208.536L225.046 104.789H225.171V76.8772H235.576V121.424H224.984L208.474 93.5121H208.349V121.424H197.945ZM242.817 121.424V76.8772H262.069C266.181 76.8772 269.712 77.7494 272.661 79.4939C275.651 81.1969 277.936 83.7098 279.514 87.0326C281.092 90.3554 281.881 94.4051 281.881 99.1817C281.881 102.754 281.445 105.931 280.573 108.714C279.742 111.455 278.496 113.781 276.835 115.692C275.215 117.561 273.201 118.994 270.791 119.991C268.424 120.946 265.683 121.424 262.567 121.424H242.817ZM260.885 112.826C262.754 112.826 264.353 112.515 265.683 111.891C267.012 111.227 268.071 110.292 268.86 109.088C269.691 107.883 270.293 106.45 270.667 104.789C271.041 103.086 271.228 101.217 271.228 99.1817C271.228 97.1464 271.041 95.2981 270.667 93.6367C270.293 91.9338 269.691 90.48 268.86 89.2755C268.071 88.071 267.012 87.1364 265.683 86.4719C264.353 85.8073 262.754 85.475 260.885 85.475H253.222V112.826H260.885ZM303.782 122.421C299.961 122.421 296.596 121.818 293.689 120.614C290.823 119.409 288.58 117.644 286.96 115.318C285.382 112.992 284.572 110.147 284.53 106.783H295.122C295.163 109.358 295.932 111.206 297.427 112.328C298.964 113.408 301.041 113.947 303.657 113.947C305.443 113.947 306.918 113.761 308.081 113.387C309.244 112.971 310.116 112.39 310.698 111.642C311.279 110.895 311.57 110.022 311.57 109.026C311.57 107.613 311.071 106.492 310.074 105.661C309.078 104.83 307.665 104.228 305.838 103.854L298.86 102.421C294.706 101.591 291.425 100.075 289.016 97.8733C286.607 95.6719 285.402 92.806 285.402 89.2755C285.402 86.2019 286.15 83.689 287.645 81.7368C289.182 79.7431 291.238 78.2686 293.813 77.3133C296.43 76.358 299.358 75.8804 302.598 75.8804C308.122 75.8804 312.504 77.1679 315.744 79.7431C319.025 82.2768 320.749 85.8073 320.915 90.3346H310.324C310.158 88.4656 309.431 87.0118 308.143 85.9734C306.897 84.8935 305.049 84.3536 302.598 84.3536C300.563 84.3536 298.964 84.7274 297.801 85.475C296.638 86.2226 296.056 87.3026 296.056 88.7148C296.056 90.0024 296.555 91.0615 297.552 91.8922C298.548 92.7229 300.064 93.346 302.1 93.7613L309.078 95.1943C313.107 95.9834 316.305 97.3956 318.672 99.4309C321.04 101.425 322.224 104.353 322.224 108.216C322.224 111.082 321.497 113.574 320.043 115.692C318.589 117.81 316.492 119.472 313.75 120.676C311.009 121.839 307.686 122.421 303.782 122.421ZM327.026 121.424V76.8772H337.431V94.5089H353.879V76.8772H364.346V121.424H353.879V103.107H337.431V121.424H327.026ZM369.29 85.475V76.8772H392.404V85.475H385.924V112.826H392.529V121.424H369.414V112.826H375.894V85.475H369.29ZM397.424 121.424V76.8772H418.482C421.514 76.8772 424.152 77.3964 426.395 78.4348C428.638 79.4732 430.361 81.0307 431.566 83.1075C432.812 85.1843 433.435 87.7802 433.435 90.8954C433.435 94.0105 432.812 96.6065 431.566 98.6832C430.361 100.76 428.638 102.318 426.395 103.356C424.152 104.394 421.514 104.914 418.482 104.914H407.828V121.424H397.424ZM416.302 96.378C417.672 96.378 418.835 96.2119 419.791 95.8796C420.746 95.5058 421.473 94.9243 421.971 94.1351C422.511 93.3044 422.781 92.2245 422.781 90.8954C422.781 88.9017 422.2 87.5102 421.037 86.7211C419.915 85.8904 418.337 85.475 416.302 85.475H407.828V96.378H416.302ZM456.872 121.424L445.596 76.8772H456.063L462.604 106.097H462.729L469.645 76.8772H479.613L486.529 106.097H486.653L493.195 76.8772H503.662L492.385 121.424H481.856L474.691 92.2037H474.567L467.402 121.424H456.872ZM507.522 121.424V76.8772H540.854V85.475H517.927V94.1974H537.739V102.795H517.927V112.826H541.291V121.424H507.522ZM546.25 121.424V76.8772H579.582V85.475H556.655V94.1974H576.467V102.795H556.655V112.826H580.018V121.424H546.25ZM584.978 121.424V76.8772H595.382V95.8173L611.643 76.8772H623.481L606.659 96.1288L624.789 121.424H611.893L599.993 103.73L595.382 109.026V121.424H584.978Z" fill="black"/>
<path d="M52.3713 171.074V167.522H57.7543V152.121H52.3713V148.944C57.1936 148.944 58.315 147.486 58.6141 144.346H61.9037V167.522H67.025V171.074H52.3713ZM78.4016 143.785C85.8406 143.785 88.4947 149.542 88.4947 157.616C88.4947 166.401 84.7565 171.634 78.3269 171.634C73.5046 171.634 70.2898 168.42 69.8038 164.532H74.0653C74.3644 166.625 75.6354 168.158 78.3642 168.158C83.1865 168.158 84.3453 163.298 84.4575 159.074L84.3827 159.037C83.037 160.756 80.6819 161.84 77.8783 161.84C72.6074 161.84 69.1309 158.214 69.1309 153.056C69.1309 147.897 72.6448 143.785 78.4016 143.785ZM78.4764 147.262C75.1494 147.262 73.3177 149.43 73.3177 152.794C73.3177 156.308 75.2989 158.401 78.2521 158.401C81.766 158.401 83.9341 156.046 83.9341 152.719C83.9341 149.467 81.9903 147.262 78.4764 147.262ZM101.08 171.634C94.8741 171.634 91.5098 167.896 91.3602 163.485H95.547C95.8087 165.84 97.1918 168.083 100.855 168.083C104.107 168.083 106.276 165.99 106.276 162.027C106.276 158.289 104.294 156.57 101.117 156.57C99.0235 156.57 97.1544 157.504 95.9208 159.037H91.6967L94.4629 144.346H109.229V147.897H97.6404L96.3694 154.887V154.962C97.603 153.99 99.3973 153.243 101.939 153.243C107.023 153.243 110.537 156.906 110.537 162.065C110.537 167.934 106.425 171.634 101.08 171.634ZM123.809 171.634C116.557 171.634 113.491 165.429 113.491 157.728C113.491 150.065 116.557 143.785 123.809 143.785C131.023 143.785 134.089 150.065 134.089 157.728C134.089 165.429 131.023 171.634 123.809 171.634ZM117.641 157.728C117.641 160.756 118.052 163.597 119.211 165.541L125.902 147.635C125.304 147.411 124.594 147.262 123.809 147.262C119.061 147.262 117.641 152.121 117.641 157.728ZM123.809 168.158C128.556 168.158 129.939 163.298 129.939 157.728C129.939 154.663 129.528 151.859 128.407 149.916L121.715 167.784C122.314 168.008 123.024 168.158 123.809 168.158ZM145.283 163.336V159.784H155.338V163.336H145.283ZM166.085 171.074C166.085 166.027 169 162.551 173.972 159.298C178.271 156.495 180.477 155.336 180.477 151.71C180.477 149.579 179.617 147.336 176.178 147.336C172.178 147.336 170.907 149.953 170.907 153.504H166.72C166.72 147.972 169.711 143.785 176.253 143.785C180.963 143.785 184.776 146.626 184.776 151.56C184.776 156.831 180.701 159.523 176.963 161.915C174.496 163.485 172.178 165.055 171.393 167.448V167.522H184.477V171.074H166.085ZM198.134 171.634C190.882 171.634 187.817 165.429 187.817 157.728C187.817 150.065 190.882 143.785 198.134 143.785C205.349 143.785 208.414 150.065 208.414 157.728C208.414 165.429 205.349 171.634 198.134 171.634ZM191.966 157.728C191.966 160.756 192.377 163.597 193.536 165.541L200.228 147.635C199.63 147.411 198.919 147.262 198.134 147.262C193.387 147.262 191.966 152.121 191.966 157.728ZM198.134 168.158C202.882 168.158 204.265 163.298 204.265 157.728C204.265 154.663 203.854 151.859 202.732 149.916L196.041 167.784C196.639 168.008 197.349 168.158 198.134 168.158ZM211.133 171.074C211.133 166.027 214.048 162.551 219.02 159.298C223.319 156.495 225.525 155.336 225.525 151.71C225.525 149.579 224.665 147.336 221.226 147.336C217.226 147.336 215.955 149.953 215.955 153.504H211.768C211.768 147.972 214.759 143.785 221.3 143.785C226.011 143.785 229.824 146.626 229.824 151.56C229.824 156.831 225.749 159.523 222.011 161.915C219.544 163.485 217.226 165.055 216.441 167.448V167.522H229.524V171.074H211.133ZM242.995 171.634C235.556 171.634 232.902 165.878 232.902 157.803C232.902 149.018 236.64 143.785 243.07 143.785C247.892 143.785 251.107 147 251.593 150.888H247.332C247.033 148.794 245.762 147.262 243.033 147.262C238.21 147.262 237.052 152.121 236.939 156.345L237.014 156.383C238.36 154.663 240.715 153.579 243.519 153.579C248.79 153.579 252.266 157.205 252.266 162.364C252.266 167.522 248.752 171.634 242.995 171.634ZM242.921 168.158C246.248 168.158 248.079 165.99 248.079 162.625C248.079 159.112 246.098 157.018 243.145 157.018C239.631 157.018 237.463 159.373 237.463 162.7C237.463 165.952 239.407 168.158 242.921 168.158Z" fill="black"/>
</svg>
