<svg width="316" height="47" viewBox="0 0 316 47" fill="none" xmlns="http://www.w3.org/2000/svg">
<rect x="124.109" y="18.6836" width="56.0494" height="9.34157" fill="black"/>
<mask id="path-2-outside-1_123_1621" maskUnits="userSpaceOnUse" x="0" y="9" width="316" height="36" fill="black">
<rect fill="white" y="9" width="316" height="36"/>
<path d="M15.8219 43.5125C12.8753 43.5125 10.3771 43.0214 8.32734 42.0392C6.32024 41.057 4.78288 39.7758 3.71528 38.1958C2.64767 36.573 2.04981 34.8221 1.92169 32.9431H6.9181C7.04621 34.0107 7.4092 35.057 8.00706 36.0819C8.64762 37.0641 9.60847 37.8755 10.8896 38.516C12.1707 39.1139 13.8362 39.4128 15.886 39.4128C16.5266 39.4128 17.3166 39.3488 18.2561 39.2207C19.1956 39.0926 20.0924 38.8577 20.9465 38.516C21.8433 38.1744 22.5906 37.662 23.1884 36.9787C23.7863 36.2954 24.0852 35.42 24.0852 34.3524C24.0852 33.0285 23.5728 32.0036 22.5479 31.2777C21.523 30.5517 20.1991 29.9965 18.5764 29.6122C16.9536 29.1852 15.2241 28.7795 13.3878 28.3951C11.5942 28.0108 9.88605 27.5197 8.26328 26.9218C6.64052 26.2813 5.31669 25.4058 4.29178 24.2955C3.26688 23.1425 2.75443 21.5838 2.75443 19.6194C2.75443 16.7155 3.80068 14.4735 5.8932 12.8935C8.02841 11.2707 11.1672 10.4593 15.3095 10.4593C18.128 10.4593 20.4127 10.9077 22.1635 11.8045C23.9571 12.6586 25.3023 13.7689 26.1991 15.1354C27.1386 16.502 27.6937 17.9753 27.8646 19.5553H22.9963C22.8255 18.1888 22.1422 17.0144 20.9465 16.0322C19.7934 15.05 17.8718 14.5589 15.1814 14.5589C10.0996 14.5589 7.55866 16.0963 7.55866 19.171C7.55866 20.4521 8.07112 21.4343 9.09602 22.1176C10.1209 22.8009 11.4448 23.356 13.0675 23.7831C14.6903 24.1674 16.3985 24.5517 18.192 24.9361C20.0283 25.2777 21.7578 25.7688 23.3806 26.4094C25.0034 27.0499 26.3272 27.9681 27.3521 29.1638C28.377 30.3168 28.8895 31.8969 28.8895 33.904C28.8895 37.0214 27.6937 39.4128 25.3023 41.0783C22.9536 42.7011 19.7934 43.5125 15.8219 43.5125ZM50.5676 43.5125C47.322 43.5125 44.4822 42.7865 42.0481 41.3345C39.6139 39.8399 37.7136 37.8328 36.347 35.3132C35.0232 32.7937 34.3613 30.0179 34.3613 26.9859C34.3613 23.9112 35.0019 21.1354 36.283 18.6585C37.5641 16.139 39.4004 14.1532 41.7918 12.7013C44.1833 11.2066 47.0018 10.4593 50.2473 10.4593C53.5355 10.4593 56.354 11.2066 58.7027 12.7013C61.0942 14.1532 62.9305 16.139 64.2116 18.6585C65.4927 21.1354 66.1333 23.9112 66.1333 26.9859V28.9076H39.2936C39.5499 30.7866 40.1477 32.5161 41.0872 34.0962C42.0694 35.6335 43.3719 36.8719 44.9947 37.8114C46.6174 38.7082 48.4964 39.1566 50.6316 39.1566C52.895 39.1566 54.7953 38.6655 56.3327 37.6833C57.87 36.6584 59.0657 35.3559 59.9198 33.7759H65.1725C64.0621 36.6371 62.2899 38.9858 59.8558 40.8221C57.4643 42.6157 54.3683 43.5125 50.5676 43.5125ZM39.3577 24.4236H61.1369C60.7098 21.6905 59.5568 19.4059 57.6778 17.5696C55.7989 15.7333 53.322 14.8152 50.2473 14.8152C47.1726 14.8152 44.6957 15.7333 42.8167 17.5696C40.9805 19.4059 39.8274 21.6905 39.3577 24.4236ZM87.5051 43.5125C84.2596 43.5125 81.4198 42.7865 78.9856 41.3345C76.5515 39.8399 74.6511 37.8328 73.2846 35.3132C71.9608 32.7937 71.2988 30.0179 71.2988 26.9859C71.2988 23.9112 71.9394 21.1354 73.2205 18.6585C74.5017 16.139 76.338 14.1532 78.7294 12.7013C81.1208 11.2066 83.9393 10.4593 87.1848 10.4593C90.4731 10.4593 93.2916 11.2066 95.6403 12.7013C98.0317 14.1532 99.868 16.139 101.149 18.6585C102.43 21.1354 103.071 23.9112 103.071 26.9859V28.9076H76.2312C76.4874 30.7866 77.0853 32.5161 78.0248 34.0962C79.007 35.6335 80.3095 36.8719 81.9322 37.8114C83.555 38.7082 85.434 39.1566 87.5692 39.1566C89.8325 39.1566 91.7329 38.6655 93.2702 37.6833C94.8076 36.6584 96.0033 35.3559 96.8574 33.7759H102.11C101 36.6371 99.2275 38.9858 96.7933 40.8221C94.4019 42.6157 91.3058 43.5125 87.5051 43.5125ZM76.2953 24.4236H98.0744C97.6474 21.6905 96.4944 19.4059 94.6154 17.5696C92.7364 15.7333 90.2596 14.8152 87.1848 14.8152C84.1101 14.8152 81.6333 15.7333 79.7543 17.5696C77.918 19.4059 76.765 21.6905 76.2953 24.4236ZM211.389 43.5125C208.443 43.5125 205.945 43.0214 203.895 42.0392C201.888 41.057 200.35 39.7758 199.283 38.1958C198.215 36.573 197.617 34.8221 197.489 32.9431H202.485C202.614 34.0107 202.977 35.057 203.574 36.0819C204.215 37.0641 205.176 37.8755 206.457 38.516C207.738 39.1139 209.404 39.4128 211.453 39.4128C212.094 39.4128 212.884 39.3488 213.823 39.2207C214.763 39.0926 215.66 38.8577 216.514 38.516C217.411 38.1744 218.158 37.662 218.756 36.9787C219.354 36.2954 219.653 35.42 219.653 34.3524C219.653 33.0285 219.14 32.0036 218.115 31.2777C217.09 30.5517 215.767 29.9965 214.144 29.6122C212.521 29.1852 210.791 28.7795 208.955 28.3951C207.162 28.0108 205.453 27.5197 203.831 26.9218C202.208 26.2813 200.884 25.4058 199.859 24.2955C198.834 23.1425 198.322 21.5838 198.322 19.6194C198.322 16.7155 199.368 14.4735 201.461 12.8935C203.596 11.2707 206.735 10.4593 210.877 10.4593C213.695 10.4593 215.98 10.9077 217.731 11.8045C219.525 12.6586 220.87 13.7689 221.766 15.1354C222.706 16.502 223.261 17.9753 223.432 19.5553H218.564C218.393 18.1888 217.71 17.0144 216.514 16.0322C215.361 15.05 213.439 14.5589 210.749 14.5589C205.667 14.5589 203.126 16.0963 203.126 19.171C203.126 20.4521 203.638 21.4343 204.663 22.1176C205.688 22.8009 207.012 23.356 208.635 23.7831C210.258 24.1674 211.966 24.5517 213.759 24.9361C215.596 25.2777 217.325 25.7688 218.948 26.4094C220.571 27.0499 221.895 27.9681 222.919 29.1638C223.944 30.3168 224.457 31.8969 224.457 33.904C224.457 37.0214 223.261 39.4128 220.87 41.0783C218.521 42.7011 215.361 43.5125 211.389 43.5125ZM245.43 43.5125C242.313 43.5125 239.58 42.7865 237.231 41.3345C234.925 39.8399 233.132 37.8328 231.85 35.3132C230.569 32.7937 229.929 30.0179 229.929 26.9859C229.929 23.9112 230.569 21.1354 231.85 18.6585C233.132 16.139 234.925 14.1532 237.231 12.7013C239.58 11.2066 242.313 10.4593 245.43 10.4593C248.078 10.4593 250.341 10.9718 252.22 11.9967C254.142 13.0216 255.701 14.4095 256.896 16.1603V10.9718H261.701V43H256.896V37.8755C255.701 39.5837 254.142 40.9502 252.22 41.9751C250.341 43 248.078 43.5125 245.43 43.5125ZM246.071 39.1566C248.462 39.1566 250.469 38.6015 252.092 37.4911C253.758 36.3808 255.017 34.9075 255.872 33.0712C256.726 31.1923 257.153 29.1638 257.153 26.9859C257.153 24.7653 256.726 22.7368 255.872 20.9005C255.017 19.0642 253.758 17.5909 252.092 16.4806C250.469 15.3703 248.462 14.8152 246.071 14.8152C243.722 14.8152 241.694 15.3703 239.986 16.4806C238.277 17.5909 236.975 19.0642 236.078 20.9005C235.181 22.7368 234.733 24.7653 234.733 26.9859C234.733 29.1638 235.181 31.1923 236.078 33.0712C236.975 34.9075 238.277 36.3808 239.986 37.4911C241.694 38.6015 243.722 39.1566 246.071 39.1566ZM277.505 43L267.448 10.9718H272.573L280.26 37.0427L288.395 10.9718H293.647L301.783 37.0427L309.469 10.9718H314.594L304.537 43H299.028L291.021 17.4415L283.014 43H277.505Z"/>
</mask>
<path d="M15.8219 43.5125C12.8753 43.5125 10.3771 43.0214 8.32734 42.0392C6.32024 41.057 4.78288 39.7758 3.71528 38.1958C2.64767 36.573 2.04981 34.8221 1.92169 32.9431H6.9181C7.04621 34.0107 7.4092 35.057 8.00706 36.0819C8.64762 37.0641 9.60847 37.8755 10.8896 38.516C12.1707 39.1139 13.8362 39.4128 15.886 39.4128C16.5266 39.4128 17.3166 39.3488 18.2561 39.2207C19.1956 39.0926 20.0924 38.8577 20.9465 38.516C21.8433 38.1744 22.5906 37.662 23.1884 36.9787C23.7863 36.2954 24.0852 35.42 24.0852 34.3524C24.0852 33.0285 23.5728 32.0036 22.5479 31.2777C21.523 30.5517 20.1991 29.9965 18.5764 29.6122C16.9536 29.1852 15.2241 28.7795 13.3878 28.3951C11.5942 28.0108 9.88605 27.5197 8.26328 26.9218C6.64052 26.2813 5.31669 25.4058 4.29178 24.2955C3.26688 23.1425 2.75443 21.5838 2.75443 19.6194C2.75443 16.7155 3.80068 14.4735 5.8932 12.8935C8.02841 11.2707 11.1672 10.4593 15.3095 10.4593C18.128 10.4593 20.4127 10.9077 22.1635 11.8045C23.9571 12.6586 25.3023 13.7689 26.1991 15.1354C27.1386 16.502 27.6937 17.9753 27.8646 19.5553H22.9963C22.8255 18.1888 22.1422 17.0144 20.9465 16.0322C19.7934 15.05 17.8718 14.5589 15.1814 14.5589C10.0996 14.5589 7.55866 16.0963 7.55866 19.171C7.55866 20.4521 8.07112 21.4343 9.09602 22.1176C10.1209 22.8009 11.4448 23.356 13.0675 23.7831C14.6903 24.1674 16.3985 24.5517 18.192 24.9361C20.0283 25.2777 21.7578 25.7688 23.3806 26.4094C25.0034 27.0499 26.3272 27.9681 27.3521 29.1638C28.377 30.3168 28.8895 31.8969 28.8895 33.904C28.8895 37.0214 27.6937 39.4128 25.3023 41.0783C22.9536 42.7011 19.7934 43.5125 15.8219 43.5125ZM50.5676 43.5125C47.322 43.5125 44.4822 42.7865 42.0481 41.3345C39.6139 39.8399 37.7136 37.8328 36.347 35.3132C35.0232 32.7937 34.3613 30.0179 34.3613 26.9859C34.3613 23.9112 35.0019 21.1354 36.283 18.6585C37.5641 16.139 39.4004 14.1532 41.7918 12.7013C44.1833 11.2066 47.0018 10.4593 50.2473 10.4593C53.5355 10.4593 56.354 11.2066 58.7027 12.7013C61.0942 14.1532 62.9305 16.139 64.2116 18.6585C65.4927 21.1354 66.1333 23.9112 66.1333 26.9859V28.9076H39.2936C39.5499 30.7866 40.1477 32.5161 41.0872 34.0962C42.0694 35.6335 43.3719 36.8719 44.9947 37.8114C46.6174 38.7082 48.4964 39.1566 50.6316 39.1566C52.895 39.1566 54.7953 38.6655 56.3327 37.6833C57.87 36.6584 59.0657 35.3559 59.9198 33.7759H65.1725C64.0621 36.6371 62.2899 38.9858 59.8558 40.8221C57.4643 42.6157 54.3683 43.5125 50.5676 43.5125ZM39.3577 24.4236H61.1369C60.7098 21.6905 59.5568 19.4059 57.6778 17.5696C55.7989 15.7333 53.322 14.8152 50.2473 14.8152C47.1726 14.8152 44.6957 15.7333 42.8167 17.5696C40.9805 19.4059 39.8274 21.6905 39.3577 24.4236ZM87.5051 43.5125C84.2596 43.5125 81.4198 42.7865 78.9856 41.3345C76.5515 39.8399 74.6511 37.8328 73.2846 35.3132C71.9608 32.7937 71.2988 30.0179 71.2988 26.9859C71.2988 23.9112 71.9394 21.1354 73.2205 18.6585C74.5017 16.139 76.338 14.1532 78.7294 12.7013C81.1208 11.2066 83.9393 10.4593 87.1848 10.4593C90.4731 10.4593 93.2916 11.2066 95.6403 12.7013C98.0317 14.1532 99.868 16.139 101.149 18.6585C102.43 21.1354 103.071 23.9112 103.071 26.9859V28.9076H76.2312C76.4874 30.7866 77.0853 32.5161 78.0248 34.0962C79.007 35.6335 80.3095 36.8719 81.9322 37.8114C83.555 38.7082 85.434 39.1566 87.5692 39.1566C89.8325 39.1566 91.7329 38.6655 93.2702 37.6833C94.8076 36.6584 96.0033 35.3559 96.8574 33.7759H102.11C101 36.6371 99.2275 38.9858 96.7933 40.8221C94.4019 42.6157 91.3058 43.5125 87.5051 43.5125ZM76.2953 24.4236H98.0744C97.6474 21.6905 96.4944 19.4059 94.6154 17.5696C92.7364 15.7333 90.2596 14.8152 87.1848 14.8152C84.1101 14.8152 81.6333 15.7333 79.7543 17.5696C77.918 19.4059 76.765 21.6905 76.2953 24.4236ZM211.389 43.5125C208.443 43.5125 205.945 43.0214 203.895 42.0392C201.888 41.057 200.35 39.7758 199.283 38.1958C198.215 36.573 197.617 34.8221 197.489 32.9431H202.485C202.614 34.0107 202.977 35.057 203.574 36.0819C204.215 37.0641 205.176 37.8755 206.457 38.516C207.738 39.1139 209.404 39.4128 211.453 39.4128C212.094 39.4128 212.884 39.3488 213.823 39.2207C214.763 39.0926 215.66 38.8577 216.514 38.516C217.411 38.1744 218.158 37.662 218.756 36.9787C219.354 36.2954 219.653 35.42 219.653 34.3524C219.653 33.0285 219.14 32.0036 218.115 31.2777C217.09 30.5517 215.767 29.9965 214.144 29.6122C212.521 29.1852 210.791 28.7795 208.955 28.3951C207.162 28.0108 205.453 27.5197 203.831 26.9218C202.208 26.2813 200.884 25.4058 199.859 24.2955C198.834 23.1425 198.322 21.5838 198.322 19.6194C198.322 16.7155 199.368 14.4735 201.461 12.8935C203.596 11.2707 206.735 10.4593 210.877 10.4593C213.695 10.4593 215.98 10.9077 217.731 11.8045C219.525 12.6586 220.87 13.7689 221.766 15.1354C222.706 16.502 223.261 17.9753 223.432 19.5553H218.564C218.393 18.1888 217.71 17.0144 216.514 16.0322C215.361 15.05 213.439 14.5589 210.749 14.5589C205.667 14.5589 203.126 16.0963 203.126 19.171C203.126 20.4521 203.638 21.4343 204.663 22.1176C205.688 22.8009 207.012 23.356 208.635 23.7831C210.258 24.1674 211.966 24.5517 213.759 24.9361C215.596 25.2777 217.325 25.7688 218.948 26.4094C220.571 27.0499 221.895 27.9681 222.919 29.1638C223.944 30.3168 224.457 31.8969 224.457 33.904C224.457 37.0214 223.261 39.4128 220.87 41.0783C218.521 42.7011 215.361 43.5125 211.389 43.5125ZM245.43 43.5125C242.313 43.5125 239.58 42.7865 237.231 41.3345C234.925 39.8399 233.132 37.8328 231.85 35.3132C230.569 32.7937 229.929 30.0179 229.929 26.9859C229.929 23.9112 230.569 21.1354 231.85 18.6585C233.132 16.139 234.925 14.1532 237.231 12.7013C239.58 11.2066 242.313 10.4593 245.43 10.4593C248.078 10.4593 250.341 10.9718 252.22 11.9967C254.142 13.0216 255.701 14.4095 256.896 16.1603V10.9718H261.701V43H256.896V37.8755C255.701 39.5837 254.142 40.9502 252.22 41.9751C250.341 43 248.078 43.5125 245.43 43.5125ZM246.071 39.1566C248.462 39.1566 250.469 38.6015 252.092 37.4911C253.758 36.3808 255.017 34.9075 255.872 33.0712C256.726 31.1923 257.153 29.1638 257.153 26.9859C257.153 24.7653 256.726 22.7368 255.872 20.9005C255.017 19.0642 253.758 17.5909 252.092 16.4806C250.469 15.3703 248.462 14.8152 246.071 14.8152C243.722 14.8152 241.694 15.3703 239.986 16.4806C238.277 17.5909 236.975 19.0642 236.078 20.9005C235.181 22.7368 234.733 24.7653 234.733 26.9859C234.733 29.1638 235.181 31.1923 236.078 33.0712C236.975 34.9075 238.277 36.3808 239.986 37.4911C241.694 38.6015 243.722 39.1566 246.071 39.1566ZM277.505 43L267.448 10.9718H272.573L280.26 37.0427L288.395 10.9718H293.647L301.783 37.0427L309.469 10.9718H314.594L304.537 43H299.028L291.021 17.4415L283.014 43H277.505Z" fill="black"/>
<path d="M8.32734 42.0392L7.88094 42.9514L7.8885 42.955L8.32734 42.0392ZM3.71528 38.1958L2.86681 38.754L2.87381 38.7643L3.71528 38.1958ZM1.92169 32.9431V31.9276H0.834549L0.908501 33.0122L1.92169 32.9431ZM6.9181 32.9431L7.92641 32.8221L7.81906 31.9276H6.9181V32.9431ZM8.00706 36.0819L7.12985 36.5936L7.1426 36.6155L7.15643 36.6367L8.00706 36.0819ZM10.8896 38.516L10.4354 39.4244L10.4477 39.4305L10.4601 39.4363L10.8896 38.516ZM18.2561 39.2207L18.3933 40.2269V40.2269L18.2561 39.2207ZM20.9465 38.516L20.5849 37.567L20.5771 37.57L20.5693 37.5731L20.9465 38.516ZM22.5479 31.2777L23.1349 30.449V30.449L22.5479 31.2777ZM18.5764 29.6122L18.3179 30.5943L18.3301 30.5975L18.3423 30.6004L18.5764 29.6122ZM13.3878 28.3951L13.175 29.3881L13.1798 29.3891L13.3878 28.3951ZM8.26328 26.9218L7.89041 27.8664L7.90126 27.8707L7.91221 27.8748L8.26328 26.9218ZM4.29178 24.2955L3.53276 24.9702L3.53909 24.9773L3.54556 24.9843L4.29178 24.2955ZM5.8932 12.8935L6.50517 13.7039L6.50768 13.702L5.8932 12.8935ZM22.1635 11.8045L21.7006 12.7084L21.7137 12.7151L21.7269 12.7214L22.1635 11.8045ZM26.1991 15.1354L25.35 15.6926L25.356 15.7018L25.3622 15.7108L26.1991 15.1354ZM27.8646 19.5553V20.5709H28.9958L28.8742 19.4462L27.8646 19.5553ZM22.9963 19.5553L21.9886 19.6813L22.0998 20.5709H22.9963V19.5553ZM20.9465 16.0322L20.2879 16.8053L20.2948 16.8112L20.3019 16.817L20.9465 16.0322ZM9.09602 22.1176L8.53269 22.9626V22.9626L9.09602 22.1176ZM13.0675 23.7831L12.8091 24.7652L12.8212 24.7684L12.8335 24.7713L13.0675 23.7831ZM18.192 24.9361L17.9792 25.9291L17.9927 25.932L18.0063 25.9345L18.192 24.9361ZM23.3806 26.4094L23.0077 27.354V27.354L23.3806 26.4094ZM27.3521 29.1638L26.5811 29.8247L26.587 29.8317L26.5931 29.8385L27.3521 29.1638ZM25.3023 41.0783L25.8796 41.9138L25.8827 41.9117L25.3023 41.0783ZM15.8219 43.5125V42.4969C12.9839 42.4969 10.6447 42.0234 8.76618 41.1233L8.32734 42.0392L7.8885 42.955C10.1096 44.0193 12.7668 44.528 15.8219 44.528V43.5125ZM8.32734 42.0392L8.77373 41.127C6.89848 40.2093 5.50906 39.0366 4.55675 37.6272L3.71528 38.1958L2.87381 38.7643C4.05671 40.515 5.742 41.9046 7.88096 42.9513L8.32734 42.0392ZM3.71528 38.1958L4.56368 37.6376C3.58905 36.1562 3.05072 34.5729 2.93489 32.8741L1.92169 32.9431L0.908501 33.0122C1.04889 35.0713 1.70628 36.9898 2.86687 38.7539L3.71528 38.1958ZM1.92169 32.9431V33.9587H6.9181V32.9431V31.9276H1.92169V32.9431ZM6.9181 32.9431L5.90979 33.0641C6.05608 34.2832 6.46932 35.4613 7.12985 36.5936L8.00706 36.0819L8.88426 35.5702C8.34907 34.6527 8.03635 33.7383 7.92641 32.8221L6.9181 32.9431ZM8.00706 36.0819L7.15643 36.6367C7.9151 37.8 9.0287 38.721 10.4354 39.4244L10.8896 38.516L11.3438 37.6077C10.1882 37.03 9.38015 36.3282 8.85769 35.5271L8.00706 36.0819ZM10.8896 38.516L10.4601 39.4363C11.9222 40.1186 13.7494 40.4284 15.886 40.4284V39.4128V38.3973C13.923 38.3973 12.4192 38.1092 11.3191 37.5958L10.8896 38.516ZM15.886 39.4128V40.4284C16.5886 40.4284 17.4277 40.3586 18.3933 40.2269L18.2561 39.2207L18.1189 38.2144C17.2055 38.339 16.4646 38.3973 15.886 38.3973V39.4128ZM18.2561 39.2207L18.3933 40.2269C19.4125 40.0879 20.3901 39.8324 21.3236 39.459L20.9465 38.516L20.5693 37.5731C19.7947 37.883 18.9786 38.0972 18.1189 38.2144L18.2561 39.2207ZM20.9465 38.516L21.308 39.4651C22.3508 39.0678 23.2393 38.4628 23.9527 37.6474L23.1884 36.9787L22.4242 36.31C21.9419 36.8611 21.3357 37.281 20.5849 37.567L20.9465 38.516ZM23.1884 36.9787L23.9527 37.6474C24.7403 36.7473 25.1008 35.6203 25.1008 34.3524H24.0852H23.0697C23.0697 35.2197 22.8323 35.8435 22.4242 36.31L23.1884 36.9787ZM24.0852 34.3524H25.1008C25.1008 32.7202 24.4453 31.3771 23.1349 30.449L22.5479 31.2777L21.9609 32.1064C22.7003 32.6301 23.0697 33.3369 23.0697 34.3524H24.0852ZM22.5479 31.2777L23.1349 30.449C21.975 29.6274 20.5207 29.0291 18.8104 28.624L18.5764 29.6122L18.3423 30.6004C19.8776 30.964 21.0709 31.476 21.9609 32.1064L22.5479 31.2777ZM18.5764 29.6122L18.8348 28.6301C17.1936 28.1982 15.4471 27.7886 13.5958 27.4011L13.3878 28.3951L13.1798 29.3891C15.0011 29.7703 16.7137 30.1721 18.3179 30.5943L18.5764 29.6122ZM13.3878 28.3951L13.6006 27.4021C11.8512 27.0272 10.1894 26.5492 8.61436 25.9689L8.26328 26.9218L7.91221 27.8748C9.58269 28.4902 11.3373 28.9943 13.175 29.3881L13.3878 28.3951ZM8.26328 26.9218L8.63616 25.9772C7.13356 25.3841 5.94439 24.5886 5.03801 23.6067L4.29178 24.2955L3.54556 24.9843C4.68898 26.223 6.14748 27.1784 7.89041 27.8664L8.26328 26.9218ZM4.29178 24.2955L5.05081 23.6208C4.23246 22.7002 3.76997 21.4052 3.76997 19.6194H2.75443H1.73888C1.73888 21.7624 2.3013 23.5848 3.53276 24.9702L4.29178 24.2955ZM2.75443 19.6194H3.76997C3.76997 16.9946 4.69669 15.0695 6.50517 13.7039L5.8932 12.8935L5.28122 12.083C2.90468 13.8775 1.73888 16.4364 1.73888 19.6194H2.75443ZM5.8932 12.8935L6.50768 13.702C8.39314 12.2691 11.2754 11.4749 15.3095 11.4749V10.4593V9.44377C11.059 9.44377 7.66369 10.2723 5.27871 12.0849L5.8932 12.8935ZM15.3095 10.4593V11.4749C18.032 11.4749 20.1414 11.9098 21.7006 12.7084L22.1635 11.8045L22.6265 10.9006C20.6839 9.90564 18.224 9.44377 15.3095 9.44377V10.4593ZM22.1635 11.8045L21.7269 12.7214C23.3889 13.5128 24.5752 14.5119 25.35 15.6926L26.1991 15.1354L27.0481 14.5782C26.0294 13.0259 24.5253 11.8044 22.6002 10.8876L22.1635 11.8045ZM26.1991 15.1354L25.3622 15.7108C26.2107 16.9449 26.703 18.2591 26.8549 19.6645L27.8646 19.5553L28.8742 19.4462C28.6845 17.6914 28.0665 16.0591 27.0359 14.5601L26.1991 15.1354ZM27.8646 19.5553V18.5398H22.9963V19.5553V20.5709H27.8646V19.5553ZM22.9963 19.5553L24.004 19.4294C23.7968 17.7723 22.9608 16.3726 21.5911 15.2475L20.9465 16.0322L20.3019 16.817C21.3236 17.6562 21.8541 18.6053 21.9886 19.6813L22.9963 19.5553ZM20.9465 16.0322L21.605 15.2591C20.1715 14.038 17.9447 13.5434 15.1814 13.5434V14.5589V15.5745C17.7988 15.5745 19.4154 16.0621 20.2879 16.8053L20.9465 16.0322ZM15.1814 14.5589V13.5434C12.5712 13.5434 10.4439 13.9323 8.93863 14.8431C7.35122 15.8035 6.54312 17.2936 6.54312 19.171H7.55866H8.57421C8.57421 17.9737 9.03656 17.1577 9.99006 16.5808C11.0257 15.9542 12.7098 15.5745 15.1814 15.5745V14.5589ZM7.55866 19.171H6.54312C6.54312 20.7754 7.21197 22.0821 8.53269 22.9626L9.09602 22.1176L9.65934 21.2726C8.93026 20.7866 8.57421 20.1289 8.57421 19.171H7.55866ZM9.09602 22.1176L8.53269 22.9626C9.67793 23.7261 11.1144 24.3192 12.8091 24.7652L13.0675 23.7831L13.326 22.801C11.7751 22.3928 10.5639 21.8757 9.65934 21.2726L9.09602 22.1176ZM13.0675 23.7831L12.8335 24.7713C14.464 25.1574 16.1793 25.5434 17.9792 25.9291L18.192 24.9361L18.4048 23.9431C16.6177 23.5601 14.9166 23.1774 13.3016 22.7949L13.0675 23.7831ZM18.192 24.9361L18.0063 25.9345C19.7831 26.2651 21.4496 26.7389 23.0077 27.354L23.3806 26.4094L23.7535 25.4648C22.0661 24.7987 20.2736 24.2904 18.3778 23.9377L18.192 24.9361ZM23.3806 26.4094L23.0077 27.354C24.4935 27.9405 25.675 28.7677 26.5811 29.8247L27.3521 29.1638L28.1232 28.5029C26.9794 27.1685 25.5132 26.1594 23.7535 25.4648L23.3806 26.4094ZM27.3521 29.1638L26.5931 29.8385C27.4081 30.7553 27.8739 32.0689 27.8739 33.904H28.8895H29.905C29.905 31.7248 29.346 29.8783 28.1111 28.4891L27.3521 29.1638ZM28.8895 33.904H27.8739C27.8739 36.7165 26.819 38.7844 24.7219 40.2449L25.3023 41.0783L25.8827 41.9117C28.5684 40.0412 29.905 37.3263 29.905 33.904H28.8895ZM25.3023 41.0783L24.725 40.2428C22.6006 41.7106 19.6654 42.4969 15.8219 42.4969V43.5125V44.528C19.9215 44.528 23.3066 43.6915 25.8796 41.9138L25.3023 41.0783ZM42.0481 41.3345L41.5166 42.2L41.5278 42.2067L42.0481 41.3345ZM36.347 35.3132L35.448 35.7856L35.4543 35.7974L36.347 35.3132ZM36.283 18.6585L37.185 19.1251L37.1882 19.1188L36.283 18.6585ZM41.7918 12.7013L42.3189 13.5694L42.3301 13.5625L41.7918 12.7013ZM58.7027 12.7013L58.1575 13.5581L58.1666 13.5638L58.1757 13.5694L58.7027 12.7013ZM64.2116 18.6585L63.3063 19.1188L63.3096 19.1251L64.2116 18.6585ZM66.1333 28.9076V29.9231H67.1488V28.9076H66.1333ZM39.2936 28.9076V27.892H38.1302L38.2874 29.0448L39.2936 28.9076ZM41.0872 34.0961L40.2143 34.6152L40.2226 34.6292L40.2314 34.6429L41.0872 34.0961ZM44.9947 37.8114L44.4858 38.6903L44.4946 38.6954L44.5035 38.7003L44.9947 37.8114ZM56.3327 37.6833L56.8794 38.5391L56.8877 38.5338L56.896 38.5283L56.3327 37.6833ZM59.9198 33.7759V32.7603H59.3144L59.0264 33.293L59.9198 33.7759ZM65.1725 33.7759L66.1192 34.1433L66.6559 32.7603H65.1725V33.7759ZM59.8558 40.8221L60.4651 41.6345L60.4674 41.6328L59.8558 40.8221ZM39.3577 24.4236L38.3568 24.2516L38.1527 25.4392H39.3577V24.4236ZM61.1369 24.4236V25.4392H62.3234L62.1403 24.2668L61.1369 24.4236ZM57.6778 17.5696L58.3876 16.8433V16.8433L57.6778 17.5696ZM42.8167 17.5696L42.1069 16.8432L42.0986 16.8515L42.8167 17.5696ZM50.5676 43.5125V42.4969C47.4782 42.4969 44.8234 41.8075 42.5683 40.4624L42.0481 41.3345L41.5278 42.2067C44.141 43.7654 47.1659 44.528 50.5676 44.528V43.5125ZM42.0481 41.3345L42.5795 40.4691C40.2976 39.068 38.5217 37.1926 37.2397 34.829L36.347 35.3132L35.4543 35.7974C36.9055 38.4729 38.9302 40.6118 41.5167 42.2L42.0481 41.3345ZM36.347 35.3132L37.246 34.8409C36.0037 32.4765 35.3768 29.8644 35.3768 26.9859H34.3613H33.3457C33.3457 30.1714 34.0427 33.1109 35.448 35.7856L36.347 35.3132ZM34.3613 26.9859H35.3768C35.3768 24.0566 35.9859 21.4434 37.185 19.1251L36.283 18.6585L35.381 18.192C34.0178 20.8274 33.3457 23.7658 33.3457 26.9859H34.3613ZM36.283 18.6585L37.1882 19.1188C38.3846 16.7659 40.0908 14.9222 42.3189 13.5694L41.7918 12.7013L41.2648 11.8332C38.71 13.3843 36.7436 15.5121 35.3777 18.1982L36.283 18.6585ZM41.7918 12.7013L42.3301 13.5625C44.5369 12.1832 47.1628 11.4749 50.2473 11.4749V10.4593V9.44377C46.8408 9.44377 43.8296 10.2301 41.2536 11.8401L41.7918 12.7013ZM50.2473 10.4593V11.4749C53.3779 11.4749 55.9993 12.1847 58.1575 13.5581L58.7027 12.7013L59.248 11.8445C56.7087 10.2286 53.6932 9.44377 50.2473 9.44377V10.4593ZM58.7027 12.7013L58.1757 13.5694C60.4038 14.9222 62.11 16.7659 63.3064 19.1188L64.2116 18.6585L65.1168 18.1982C63.751 15.5121 61.7845 13.3843 59.2298 11.8332L58.7027 12.7013ZM64.2116 18.6585L63.3096 19.1251C64.5087 21.4434 65.1178 24.0566 65.1178 26.9859H66.1333H67.1488C67.1488 23.7658 66.4768 20.8274 65.1136 18.192L64.2116 18.6585ZM66.1333 26.9859H65.1178V28.9076H66.1333H67.1488V26.9859H66.1333ZM66.1333 28.9076V27.892H39.2936V28.9076V29.9231H66.1333V28.9076ZM39.2936 28.9076L38.2874 29.0448C38.5614 31.0543 39.203 32.9143 40.2143 34.6152L41.0872 34.0961L41.9601 33.5771C41.0924 32.1178 40.5383 30.5188 40.2999 28.7704L39.2936 28.9076ZM41.0872 34.0961L40.2314 34.6429C41.3035 36.321 42.7266 37.6718 44.4858 38.6903L44.9947 37.8114L45.5035 36.9325C44.0172 36.0721 42.8353 34.946 41.943 33.5494L41.0872 34.0961ZM44.9947 37.8114L44.5035 38.7003C46.2981 39.692 48.3509 40.1722 50.6316 40.1722V39.1566V38.1411C48.6419 38.1411 46.9368 37.7244 45.4859 36.9226L44.9947 37.8114ZM50.6316 39.1566V40.1722C53.0421 40.1722 55.1435 39.6482 56.8794 38.5391L56.3327 37.6833L55.7859 36.8275C54.4471 37.6829 52.7478 38.1411 50.6316 38.1411V39.1566ZM56.3327 37.6833L56.896 38.5283C58.5671 37.4142 59.878 35.9889 60.8132 34.2588L59.9198 33.7759L59.0264 33.293C58.2535 34.7229 57.1729 35.9026 55.7693 36.8383L56.3327 37.6833ZM59.9198 33.7759V34.7914H65.1725V33.7759V32.7603H59.9198V33.7759ZM65.1725 33.7759L64.2257 33.4085C63.1832 36.0948 61.5265 38.2896 59.2442 40.0114L59.8558 40.8221L60.4674 41.6328C63.0533 39.682 64.941 37.1793 66.1192 34.1433L65.1725 33.7759ZM59.8558 40.8221L59.2464 40.0096C57.0735 41.6393 54.2087 42.4969 50.5676 42.4969V43.5125V44.528C54.5278 44.528 57.8551 43.592 60.4651 41.6345L59.8558 40.8221ZM39.3577 24.4236V25.4392H61.1369V24.4236V23.4081H39.3577V24.4236ZM61.1369 24.4236L62.1403 24.2668C61.6813 21.3295 60.432 18.8412 58.3876 16.8433L57.6778 17.5696L56.968 18.2959C58.6817 19.9706 59.7384 22.0516 60.1335 24.5804L61.1369 24.4236ZM57.6778 17.5696L58.3876 16.8433C56.2868 14.7902 53.5387 13.7996 50.2473 13.7996V14.8152V15.8307C53.1053 15.8307 55.3109 16.6764 56.968 18.2959L57.6778 17.5696ZM50.2473 14.8152V13.7996C46.9558 13.7996 44.2078 14.7902 42.1069 16.8433L42.8167 17.5696L43.5265 18.2959C45.1837 16.6764 47.3893 15.8307 50.2473 15.8307V14.8152ZM42.8167 17.5696L42.0986 16.8515C40.1036 18.8465 38.8596 21.3265 38.3568 24.2516L39.3577 24.4236L40.3586 24.5956C40.7953 22.0546 41.8573 19.9652 43.5348 18.2877L42.8167 17.5696ZM78.9856 41.3345L78.4542 42.2L78.4654 42.2067L78.9856 41.3345ZM73.2846 35.3132L72.3855 35.7856L72.3919 35.7974L73.2846 35.3132ZM73.2205 18.6585L74.1226 19.1251L74.1258 19.1188L73.2205 18.6585ZM78.7294 12.7013L79.2565 13.5694L79.2676 13.5625L78.7294 12.7013ZM95.6403 12.7013L95.0951 13.5581L95.1041 13.5638L95.1133 13.5694L95.6403 12.7013ZM101.149 18.6585L100.244 19.1188L100.247 19.1251L101.149 18.6585ZM103.071 28.9076V29.9231H104.086V28.9076H103.071ZM76.2312 28.9076V27.892H75.0678L75.225 29.0448L76.2312 28.9076ZM78.0248 34.0961L77.1519 34.6152L77.1602 34.6292L77.169 34.6429L78.0248 34.0961ZM81.9322 37.8114L81.4234 38.6903L81.4322 38.6954L81.441 38.7003L81.9322 37.8114ZM93.2702 37.6833L93.817 38.5391L93.8253 38.5338L93.8335 38.5283L93.2702 37.6833ZM96.8574 33.7759V32.7603H96.2519L95.964 33.293L96.8574 33.7759ZM102.11 33.7759L103.057 34.1433L103.593 32.7603H102.11V33.7759ZM96.7933 40.8221L97.4026 41.6345L97.4049 41.6328L96.7933 40.8221ZM76.2952 24.4236L75.2944 24.2516L75.0903 25.4392H76.2952V24.4236ZM98.0744 24.4236V25.4392H99.261L99.0778 24.2668L98.0744 24.4236ZM94.6154 17.5696L95.3252 16.8433V16.8433L94.6154 17.5696ZM79.7543 17.5696L79.0445 16.8432L79.0362 16.8515L79.7543 17.5696ZM87.5051 43.5125V42.4969C84.4157 42.4969 81.761 41.8075 79.5059 40.4624L78.9856 41.3345L78.4654 42.2067C81.0786 43.7654 84.1035 44.528 87.5051 44.528V43.5125ZM78.9856 41.3345L79.517 40.4691C77.2352 39.068 75.4592 37.1926 74.1773 34.829L73.2846 35.3132L72.3919 35.7974C73.843 38.4729 75.8677 40.6118 78.4542 42.2L78.9856 41.3345ZM73.2846 35.3132L74.1836 34.8409C72.9413 32.4765 72.3144 29.8644 72.3144 26.9859H71.2988H70.2833C70.2833 30.1714 70.9802 33.1109 72.3856 35.7856L73.2846 35.3132ZM71.2988 26.9859H72.3144C72.3144 24.0566 72.9234 21.4434 74.1226 19.1251L73.2205 18.6585L72.3185 18.192C70.9554 20.8274 70.2833 23.7658 70.2833 26.9859H71.2988ZM73.2205 18.6585L74.1258 19.1188C75.3222 16.7659 77.0283 14.9222 79.2564 13.5694L78.7294 12.7013L78.2023 11.8332C75.6476 13.3843 73.6812 15.5121 72.3153 18.1982L73.2205 18.6585ZM78.7294 12.7013L79.2676 13.5625C81.4745 12.1832 84.1003 11.4749 87.1848 11.4749V10.4593V9.44377C83.7783 9.44377 80.7672 10.2301 78.1912 11.8401L78.7294 12.7013ZM87.1848 10.4593V11.4749C90.3155 11.4749 92.9369 12.1847 95.0951 13.5581L95.6403 12.7013L96.1855 11.8445C93.6463 10.2286 90.6307 9.44377 87.1848 9.44377V10.4593ZM95.6403 12.7013L95.1133 13.5694C97.3414 14.9222 99.0475 16.7659 100.244 19.1188L101.149 18.6585L102.054 18.1982C100.689 15.5121 98.7221 13.3843 96.1674 11.8332L95.6403 12.7013ZM101.149 18.6585L100.247 19.1251C101.446 21.4434 102.055 24.0566 102.055 26.9859H103.071H104.086C104.086 23.7658 103.414 20.8274 102.051 18.192L101.149 18.6585ZM103.071 26.9859H102.055V28.9076H103.071H104.086V26.9859H103.071ZM103.071 28.9076V27.892H76.2312V28.9076V29.9231H103.071V28.9076ZM76.2312 28.9076L75.225 29.0448C75.499 31.0543 76.1406 32.9143 77.1519 34.6152L78.0248 34.0961L78.8977 33.5771C78.03 32.1178 77.4758 30.5188 77.2374 28.7704L76.2312 28.9076ZM78.0248 34.0961L77.169 34.6429C78.2411 36.321 79.6641 37.6718 81.4234 38.6903L81.9322 37.8114L82.441 36.9325C80.9548 36.0721 79.7728 34.946 78.8806 33.5494L78.0248 34.0961ZM81.9322 37.8114L81.441 38.7003C83.2356 39.692 85.2885 40.1722 87.5692 40.1722V39.1566V38.1411C85.5795 38.1411 83.8743 37.7244 82.4234 36.9226L81.9322 37.8114ZM87.5692 39.1566V40.1722C89.9797 40.1722 92.0811 39.6482 93.817 38.5391L93.2702 37.6833L92.7234 36.8275C91.3847 37.6829 89.6854 38.1411 87.5692 38.1411V39.1566ZM93.2702 37.6833L93.8335 38.5283C95.5047 37.4142 96.8155 35.9889 97.7508 34.2588L96.8574 33.7759L95.964 33.293C95.191 34.7229 94.1104 35.9026 92.7069 36.8383L93.2702 37.6833ZM96.8574 33.7759V34.7914H102.11V33.7759V32.7603H96.8574V33.7759ZM102.11 33.7759L101.163 33.4085C100.121 36.0948 98.4641 38.2896 96.1817 40.0114L96.7933 40.8221L97.4049 41.6328C99.9909 39.682 101.879 37.1793 103.057 34.1433L102.11 33.7759ZM96.7933 40.8221L96.184 40.0096C94.0111 41.6393 91.1463 42.4969 87.5051 42.4969V43.5125V44.528C91.4653 44.528 94.7927 43.592 97.4026 41.6345L96.7933 40.8221ZM76.2952 24.4236V25.4392H98.0744V24.4236V23.4081H76.2952V24.4236ZM98.0744 24.4236L99.0778 24.2668C98.6189 21.3295 97.3696 18.8412 95.3252 16.8433L94.6154 17.5696L93.9056 18.2959C95.6192 19.9706 96.676 22.0516 97.0711 24.5804L98.0744 24.4236ZM94.6154 17.5696L95.3252 16.8433C93.2244 14.7902 90.4763 13.7996 87.1848 13.7996V14.8152V15.8307C90.0428 15.8307 92.2485 16.6764 93.9056 18.2959L94.6154 17.5696ZM87.1848 14.8152V13.7996C83.8934 13.7996 81.1453 14.7902 79.0445 16.8433L79.7543 17.5696L80.4641 18.2959C82.1212 16.6764 84.3269 15.8307 87.1848 15.8307V14.8152ZM79.7543 17.5696L79.0362 16.8515C77.0412 18.8465 75.7971 21.3265 75.2944 24.2516L76.2952 24.4236L77.2961 24.5956C77.7329 22.0546 78.7948 19.9652 80.4724 18.2877L79.7543 17.5696ZM203.895 42.0392L203.448 42.9514L203.456 42.955L203.895 42.0392ZM199.283 38.1958L198.434 38.754L198.441 38.7643L199.283 38.1958ZM197.489 32.9431V31.9276H196.402L196.476 33.0122L197.489 32.9431ZM202.485 32.9431L203.494 32.8221L203.386 31.9276H202.485V32.9431ZM203.574 36.0819L202.697 36.5936L202.71 36.6155L202.724 36.6367L203.574 36.0819ZM206.457 38.516L206.003 39.4244L206.015 39.4305L206.028 39.4363L206.457 38.516ZM213.823 39.2207L213.961 40.2269V40.2269L213.823 39.2207ZM216.514 38.516L216.152 37.567L216.144 37.57L216.137 37.5731L216.514 38.516ZM218.115 31.2777L218.702 30.449V30.449L218.115 31.2777ZM214.144 29.6122L213.885 30.5943L213.897 30.5975L213.91 30.6004L214.144 29.6122ZM208.955 28.3951L208.742 29.3881L208.747 29.3891L208.955 28.3951ZM203.831 26.9218L203.458 27.8664L203.469 27.8707L203.48 27.8748L203.831 26.9218ZM199.859 24.2955L199.1 24.9702L199.106 24.9773L199.113 24.9843L199.859 24.2955ZM201.461 12.8935L202.073 13.7039L202.075 13.702L201.461 12.8935ZM217.731 11.8045L217.268 12.7084L217.281 12.7151L217.294 12.7214L217.731 11.8045ZM221.766 15.1354L220.917 15.6926L220.923 15.7018L220.93 15.7108L221.766 15.1354ZM223.432 19.5553V20.5709H224.563L224.442 19.4462L223.432 19.5553ZM218.564 19.5553L217.556 19.6813L217.667 20.5709H218.564V19.5553ZM216.514 16.0322L215.855 16.8053L215.862 16.8112L215.869 16.817L216.514 16.0322ZM204.663 22.1176L204.1 22.9626V22.9626L204.663 22.1176ZM208.635 23.7831L208.376 24.7652L208.389 24.7684L208.401 24.7713L208.635 23.7831ZM213.759 24.9361L213.547 25.9291L213.56 25.932L213.574 25.9345L213.759 24.9361ZM218.948 26.4094L218.575 27.354V27.354L218.948 26.4094ZM222.919 29.1638L222.148 29.8247L222.154 29.8317L222.16 29.8385L222.919 29.1638ZM220.87 41.0783L221.447 41.9138L221.45 41.9117L220.87 41.0783ZM211.389 43.5125V42.4969C208.551 42.4969 206.212 42.0234 204.334 41.1233L203.895 42.0392L203.456 42.955C205.677 44.0193 208.334 44.528 211.389 44.528V43.5125ZM203.895 42.0392L204.341 41.127C202.466 40.2093 201.076 39.0366 200.124 37.6272L199.283 38.1958L198.441 38.7643C199.624 40.515 201.309 41.9046 203.448 42.9513L203.895 42.0392ZM199.283 38.1958L200.131 37.6376C199.156 36.1562 198.618 34.5729 198.502 32.8741L197.489 32.9431L196.476 33.0122C196.616 35.0713 197.274 36.9898 198.434 38.7539L199.283 38.1958ZM197.489 32.9431V33.9587H202.485V32.9431V31.9276H197.489V32.9431ZM202.485 32.9431L201.477 33.0641C201.623 34.2832 202.037 35.4613 202.697 36.5936L203.574 36.0819L204.452 35.5702C203.916 34.6527 203.604 33.7383 203.494 32.8221L202.485 32.9431ZM203.574 36.0819L202.724 36.6367C203.482 37.8 204.596 38.721 206.003 39.4244L206.457 38.516L206.911 37.6077C205.756 37.03 204.948 36.3282 204.425 35.5271L203.574 36.0819ZM206.457 38.516L206.028 39.4363C207.49 40.1186 209.317 40.4284 211.453 40.4284V39.4128V38.3973C209.49 38.3973 207.987 38.1092 206.886 37.5958L206.457 38.516ZM211.453 39.4128V40.4284C212.156 40.4284 212.995 40.3586 213.961 40.2269L213.823 39.2207L213.686 38.2144C212.773 38.339 212.032 38.3973 211.453 38.3973V39.4128ZM213.823 39.2207L213.961 40.2269C214.98 40.0879 215.957 39.8324 216.891 39.459L216.514 38.516L216.137 37.5731C215.362 37.883 214.546 38.0972 213.686 38.2144L213.823 39.2207ZM216.514 38.516L216.875 39.4651C217.918 39.0678 218.807 38.4628 219.52 37.6474L218.756 36.9787L217.992 36.31C217.509 36.8611 216.903 37.281 216.152 37.567L216.514 38.516ZM218.756 36.9787L219.52 37.6474C220.308 36.7473 220.668 35.6203 220.668 34.3524H219.653H218.637C218.637 35.2197 218.4 35.8435 217.992 36.31L218.756 36.9787ZM219.653 34.3524H220.668C220.668 32.7202 220.013 31.3771 218.702 30.449L218.115 31.2777L217.528 32.1064C218.268 32.6301 218.637 33.3369 218.637 34.3524H219.653ZM218.115 31.2777L218.702 30.449C217.542 29.6274 216.088 29.0291 214.378 28.624L214.144 29.6122L213.91 30.6004C215.445 30.964 216.638 31.476 217.528 32.1064L218.115 31.2777ZM214.144 29.6122L214.402 28.6301C212.761 28.1982 211.014 27.7886 209.163 27.4011L208.955 28.3951L208.747 29.3891C210.568 29.7703 212.281 30.1721 213.885 30.5943L214.144 29.6122ZM208.955 28.3951L209.168 27.4021C207.419 27.0272 205.757 26.5492 204.182 25.9689L203.831 26.9218L203.48 27.8748C205.15 28.4902 206.905 28.9943 208.742 29.3881L208.955 28.3951ZM203.831 26.9218L204.204 25.9772C202.701 25.3841 201.512 24.5886 200.605 23.6067L199.859 24.2955L199.113 24.9843C200.256 26.223 201.715 27.1784 203.458 27.8664L203.831 26.9218ZM199.859 24.2955L200.618 23.6208C199.8 22.7002 199.337 21.4052 199.337 19.6194H198.322H197.306C197.306 21.7624 197.869 23.5848 199.1 24.9702L199.859 24.2955ZM198.322 19.6194H199.337C199.337 16.9946 200.264 15.0695 202.073 13.7039L201.461 12.8935L200.849 12.083C198.472 13.8775 197.306 16.4364 197.306 19.6194H198.322ZM201.461 12.8935L202.075 13.702C203.961 12.2691 206.843 11.4749 210.877 11.4749V10.4593V9.44377C206.626 9.44377 203.231 10.2723 200.846 12.0849L201.461 12.8935ZM210.877 10.4593V11.4749C213.599 11.4749 215.709 11.9098 217.268 12.7084L217.731 11.8045L218.194 10.9006C216.251 9.90564 213.791 9.44377 210.877 9.44377V10.4593ZM217.731 11.8045L217.294 12.7214C218.956 13.5128 220.143 14.5119 220.917 15.6926L221.766 15.1354L222.616 14.5782C221.597 13.0259 220.093 11.8044 218.168 10.8876L217.731 11.8045ZM221.766 15.1354L220.93 15.7108C221.778 16.9449 222.27 18.2591 222.422 19.6645L223.432 19.5553L224.442 19.4462C224.252 17.6914 223.634 16.0591 222.603 14.5601L221.766 15.1354ZM223.432 19.5553V18.5398H218.564V19.5553V20.5709H223.432V19.5553ZM218.564 19.5553L219.571 19.4294C219.364 17.7723 218.528 16.3726 217.158 15.2475L216.514 16.0322L215.869 16.817C216.891 17.6562 217.421 18.6053 217.556 19.6813L218.564 19.5553ZM216.514 16.0322L217.172 15.2591C215.739 14.038 213.512 13.5434 210.749 13.5434V14.5589V15.5745C213.366 15.5745 214.983 16.0621 215.855 16.8053L216.514 16.0322ZM210.749 14.5589V13.5434C208.139 13.5434 206.011 13.9323 204.506 14.8431C202.919 15.8035 202.111 17.2936 202.111 19.171H203.126H204.142C204.142 17.9737 204.604 17.1577 205.557 16.5808C206.593 15.9542 208.277 15.5745 210.749 15.5745V14.5589ZM203.126 19.171H202.111C202.111 20.7754 202.779 22.0821 204.1 22.9626L204.663 22.1176L205.227 21.2726C204.498 20.7866 204.142 20.1289 204.142 19.171H203.126ZM204.663 22.1176L204.1 22.9626C205.245 23.7261 206.682 24.3192 208.376 24.7652L208.635 23.7831L208.893 22.801C207.343 22.3928 206.131 21.8757 205.227 21.2726L204.663 22.1176ZM208.635 23.7831L208.401 24.7713C210.031 25.1574 211.747 25.5434 213.547 25.9291L213.759 24.9361L213.972 23.9431C212.185 23.5601 210.484 23.1774 208.869 22.7949L208.635 23.7831ZM213.759 24.9361L213.574 25.9345C215.35 26.2651 217.017 26.7389 218.575 27.354L218.948 26.4094L219.321 25.4648C217.634 24.7987 215.841 24.2904 213.945 23.9377L213.759 24.9361ZM218.948 26.4094L218.575 27.354C220.061 27.9405 221.242 28.7677 222.148 29.8247L222.919 29.1638L223.691 28.5029C222.547 27.1685 221.081 26.1594 219.321 25.4648L218.948 26.4094ZM222.919 29.1638L222.16 29.8385C222.975 30.7553 223.441 32.0689 223.441 33.904H224.457H225.472C225.472 31.7248 224.913 29.8783 223.679 28.4891L222.919 29.1638ZM224.457 33.904H223.441C223.441 36.7165 222.386 38.7844 220.289 40.2449L220.87 41.0783L221.45 41.9117C224.136 40.0412 225.472 37.3263 225.472 33.904H224.457ZM220.87 41.0783L220.292 40.2428C218.168 41.7106 215.233 42.4969 211.389 42.4969V43.5125V44.528C215.489 44.528 218.874 43.6915 221.447 41.9138L220.87 41.0783ZM237.231 41.3345L236.679 42.1867L236.688 42.1926L236.697 42.1983L237.231 41.3345ZM231.85 18.6585L232.752 19.1251L232.756 19.1188L231.85 18.6585ZM237.231 12.7013L237.772 13.5607L237.776 13.5581L237.231 12.7013ZM252.22 11.9967L251.734 12.8883L251.742 12.8927L252.22 11.9967ZM256.896 16.1603L256.058 16.7331L257.912 19.4481V16.1603H256.896ZM256.896 10.9718V9.95622H255.881V10.9718H256.896ZM261.701 10.9718H262.716V9.95622H261.701V10.9718ZM261.701 43V44.0155H262.716V43H261.701ZM256.896 43H255.881V44.0155H256.896V43ZM256.896 37.8755H257.912V34.6538L256.064 37.2931L256.896 37.8755ZM252.22 41.9751L251.742 41.079L251.734 41.0836L252.22 41.9751ZM252.092 37.4911L251.529 36.6461L251.519 36.653L252.092 37.4911ZM255.872 33.0712L256.792 33.4995L256.796 33.4915L255.872 33.0712ZM255.872 20.9005L254.951 21.3288V21.3288L255.872 20.9005ZM252.092 16.4806L251.519 17.3188L251.529 17.3256L252.092 16.4806ZM239.986 16.4806L239.432 15.6291V15.6291L239.986 16.4806ZM236.078 20.9005L235.166 20.4549V20.4549L236.078 20.9005ZM236.078 33.0712L235.162 33.5087L235.166 33.5169L236.078 33.0712ZM239.986 37.4911L240.539 36.6397V36.6397L239.986 37.4911ZM245.43 43.5125V42.4969C242.477 42.4969 239.933 41.8111 237.765 40.4707L237.231 41.3345L236.697 42.1983C239.226 43.7618 242.149 44.528 245.43 44.528V43.5125ZM237.231 41.3345L237.783 40.4823C235.632 39.0878 233.958 37.2178 232.756 34.8529L231.85 35.3132L230.945 35.7735C232.305 38.4477 234.218 40.5919 236.679 42.1867L237.231 41.3345ZM231.85 35.3132L232.756 34.8529C231.552 32.4862 230.944 29.8698 230.944 26.9859H229.929H228.913C228.913 30.166 229.586 33.1011 230.945 35.7735L231.85 35.3132ZM229.929 26.9859H230.944C230.944 24.0566 231.553 21.4434 232.752 19.1251L231.85 18.6585L230.948 18.192C229.585 20.8274 228.913 23.7658 228.913 26.9859H229.929ZM231.85 18.6585L232.756 19.1188C233.957 16.7564 235.627 14.9112 237.772 13.5607L237.231 12.7013L236.69 11.8419C234.223 13.3953 232.306 15.5216 230.945 18.1982L231.85 18.6585ZM237.231 12.7013L237.776 13.5581C239.943 12.1792 242.482 11.4749 245.43 11.4749V10.4593V9.44377C242.144 9.44377 239.217 10.2341 236.686 11.8445L237.231 12.7013ZM245.43 10.4593V11.4749C247.948 11.4749 250.036 11.9618 251.734 12.8882L252.22 11.9967L252.707 11.1051C250.647 9.98174 248.208 9.44377 245.43 9.44377V10.4593ZM252.22 11.9967L251.742 12.8927C253.524 13.8427 254.957 15.1213 256.058 16.7331L256.896 16.1603L257.735 15.5876C256.444 13.6977 254.76 12.2004 252.698 11.1006L252.22 11.9967ZM256.896 16.1603H257.912V10.9718H256.896H255.881V16.1603H256.896ZM256.896 10.9718V11.9873H261.701V10.9718V9.95622H256.896V10.9718ZM261.701 10.9718H260.685V43H261.701H262.716V10.9718H261.701ZM261.701 43V41.9845H256.896V43V44.0155H261.701V43ZM256.896 43H257.912V37.8755H256.896H255.881V43H256.896ZM256.896 37.8755L256.064 37.2931C254.965 38.8644 253.53 40.1259 251.742 41.079L252.22 41.9751L252.698 42.8712C254.755 41.7745 256.437 40.3029 257.728 38.4579L256.896 37.8755ZM252.22 41.9751L251.734 41.0836C250.036 42.01 247.948 42.4969 245.43 42.4969V43.5125V44.528C248.208 44.528 250.647 43.99 252.707 42.8666L252.22 41.9751ZM246.071 39.1566V40.1722C248.622 40.1722 250.84 39.5781 252.666 38.3293L252.092 37.4911L251.519 36.653C250.098 37.6248 248.303 38.1411 246.071 38.1411V39.1566ZM252.092 37.4911L252.656 38.3361C254.478 37.1211 255.861 35.5028 256.792 33.4995L255.872 33.0712L254.951 32.643C254.174 34.3123 253.037 35.6406 251.529 36.6462L252.092 37.4911ZM255.872 33.0712L256.796 33.4915C257.713 31.4733 258.168 29.3006 258.168 26.9859H257.153H256.137C256.137 29.027 255.738 30.9112 254.947 32.651L255.872 33.0712ZM257.153 26.9859H258.168C258.168 24.6317 257.715 22.4552 256.792 20.4722L255.872 20.9005L254.951 21.3288C255.737 23.0184 256.137 24.8988 256.137 26.9859H257.153ZM255.872 20.9005L256.792 20.4722C255.861 18.469 254.478 16.8507 252.656 15.6356L252.092 16.4806L251.529 17.3256C253.037 18.3312 254.174 19.6595 254.951 21.3288L255.872 20.9005ZM252.092 16.4806L252.666 15.6425C250.84 14.3936 248.622 13.7996 246.071 13.7996V14.8152V15.8307C248.303 15.8307 250.098 16.347 251.519 17.3188L252.092 16.4806ZM246.071 14.8152V13.7996C243.556 13.7996 241.329 14.3961 239.432 15.6291L239.986 16.4806L240.539 17.3321C242.058 16.3445 243.888 15.8307 246.071 15.8307V14.8152ZM239.986 16.4806L239.432 15.6291C237.569 16.84 236.143 18.4538 235.166 20.4549L236.078 20.9005L236.991 21.3462C237.807 19.6747 238.986 18.3418 240.539 17.3321L239.986 16.4806ZM236.078 20.9005L235.166 20.4549C234.195 22.4417 233.717 24.6244 233.717 26.9859H234.733H235.748C235.748 24.9061 236.167 23.0319 236.991 21.3462L236.078 20.9005ZM234.733 26.9859H233.717C233.717 29.308 234.197 31.4868 235.162 33.5087L236.078 33.0712L236.995 32.6338C236.166 30.8978 235.748 29.0196 235.748 26.9859H234.733ZM236.078 33.0712L235.166 33.5169C236.143 35.518 237.569 37.1317 239.432 38.3426L239.986 37.4911L240.539 36.6397C238.986 35.6299 237.807 34.2971 236.991 32.6256L236.078 33.0712ZM239.986 37.4911L239.432 38.3426C241.329 39.5756 243.556 40.1722 246.071 40.1722V39.1566V38.1411C243.888 38.1411 242.058 37.6273 240.539 36.6397L239.986 37.4911ZM277.505 43L276.536 43.3042L276.76 44.0155H277.505V43ZM267.448 10.9718V9.95622H266.065L266.479 11.276L267.448 10.9718ZM272.573 10.9718L273.547 10.6846L273.332 9.95622H272.573V10.9718ZM280.26 37.0427L279.285 37.3299L280.232 40.5403L281.229 37.3453L280.26 37.0427ZM288.395 10.9718V9.95622H287.648L287.425 10.6693L288.395 10.9718ZM293.647 10.9718L294.617 10.6693L294.394 9.95622H293.647V10.9718ZM301.783 37.0427L300.813 37.3453L301.81 40.5403L302.757 37.3299L301.783 37.0427ZM309.469 10.9718V9.95622H308.71L308.495 10.6846L309.469 10.9718ZM314.594 10.9718L315.563 11.276L315.977 9.95622H314.594V10.9718ZM304.537 43V44.0155H305.283L305.506 43.3042L304.537 43ZM299.028 43L298.059 43.3036L298.282 44.0155H299.028V43ZM291.021 17.4415L291.99 17.1379L291.021 14.0445L290.052 17.1379L291.021 17.4415ZM283.014 43V44.0155H283.76L283.983 43.3036L283.014 43ZM277.505 43L278.474 42.6958L268.417 10.6675L267.448 10.9718L266.479 11.276L276.536 43.3042L277.505 43ZM267.448 10.9718V11.9873H272.573V10.9718V9.95622H267.448V10.9718ZM272.573 10.9718L271.599 11.259L279.285 37.3299L280.26 37.0427L281.234 36.7555L273.547 10.6846L272.573 10.9718ZM280.26 37.0427L281.229 37.3453L289.364 11.2743L288.395 10.9718L287.425 10.6693L279.29 36.7402L280.26 37.0427ZM288.395 10.9718V11.9873H293.647V10.9718V9.95622H288.395V10.9718ZM293.647 10.9718L292.678 11.2743L300.813 37.3453L301.783 37.0427L302.752 36.7402L294.617 10.6693L293.647 10.9718ZM301.783 37.0427L302.757 37.3299L310.443 11.259L309.469 10.9718L308.495 10.6846L300.808 36.7555L301.783 37.0427ZM309.469 10.9718V11.9873H314.594V10.9718V9.95622H309.469V10.9718ZM314.594 10.9718L313.625 10.6675L303.568 42.6958L304.537 43L305.506 43.3042L315.563 11.276L314.594 10.9718ZM304.537 43V41.9845H299.028V43V44.0155H304.537V43ZM299.028 43L299.997 42.6964L291.99 17.1379L291.021 17.4415L290.052 17.7451L298.059 43.3036L299.028 43ZM291.021 17.4415L290.052 17.1379L282.045 42.6964L283.014 43L283.983 43.3036L291.99 17.7451L291.021 17.4415ZM283.014 43V41.9845H277.505V43V44.0155H283.014V43Z" fill="black" mask="url(#path-2-outside-1_123_1621)"/>
<circle cx="138.121" cy="35.3652" r="7.3398" fill="#0FE7FF"/>
</svg>
