<svg width="256" height="88" viewBox="0 0 256 88" fill="none" xmlns="http://www.w3.org/2000/svg">
<path d="M43.8999 24.0177C43.6433 24.0904 43.4477 24.3862 43.328 24.7014C43.2083 25.018 43.1644 25.3527 43.1302 25.69C43.0949 26.0273 43.0693 26.3659 43.0511 26.7045C43.0329 27.0444 43.0233 27.3843 43.0158 27.7229C43.0084 28.0628 43.003 28.4002 43.003 28.7414C43.003 29.0826 43.0084 29.4264 43.0255 29.7585C43.0436 30.0919 43.0736 30.4136 43.1473 30.7665C43.22 31.1194 43.3355 31.5034 43.5482 31.6279C43.7609 31.7525 44.072 31.6163 44.242 31.3607C44.4109 31.1064 44.4387 30.7315 44.4515 30.3799C44.4632 30.027 44.46 29.6975 44.4686 29.3615C44.4771 29.0255 44.4964 28.6843 44.5295 28.3457C44.5616 28.0084 44.6076 27.6736 44.6471 27.3376C44.6877 27.0003 44.723 26.663 44.7658 26.3283C44.8075 25.9949 44.8577 25.6641 44.863 25.3177C44.8695 24.9713 44.832 24.6093 44.6535 24.3524C44.4761 24.0969 44.1575 23.9464 43.8999 24.0177ZM37.3 34.9894C37.1738 34.9997 37.0488 34.9894 36.9183 34.9764C36.7163 34.9556 36.5025 34.9271 36.3304 35.0361C36.1669 35.1398 36.0429 35.3682 36.0097 35.5978C35.9734 35.8469 36.0439 36.0986 36.1401 36.3243C36.2182 36.5072 36.3133 36.6733 36.4394 36.8056C36.6222 36.9976 36.8713 37.1196 37.1097 37.1196C37.3406 37.1196 37.5619 37.0028 37.7842 36.9094C38.2535 36.7109 38.7281 36.6097 39.2103 36.4644C39.749 36.3023 40.2963 36.0817 40.7902 35.9027C41.1473 35.7742 41.4754 35.6666 41.9276 35.4823C42.2216 35.3617 42.569 35.2099 42.6695 35.2138C42.8897 35.2216 41.9554 35.9611 41.3333 36.445C40.7977 36.8601 40.492 37.0872 40.1168 37.3829C39.6293 37.7657 39.0253 38.2638 38.7656 38.9566C38.6758 39.1966 38.6277 39.4613 38.6383 39.7311C38.6533 40.11 38.7859 40.4992 39.0082 40.7431C39.3214 41.0856 39.8142 41.1362 40.2643 41.0856C40.834 41.0194 41.3354 40.7911 41.8303 40.5381C42.5487 40.1722 43.2532 39.7532 43.9736 39.3316C44.4055 39.0786 44.8438 38.8243 45.2639 38.6063C45.5087 38.4805 45.7471 38.3663 46.0293 38.2288C46.118 38.1847 46.211 38.1393 46.2827 38.1717C46.3511 38.2029 46.3992 38.3054 46.4419 38.404C46.5713 38.7036 46.6461 38.9696 46.7626 39.2304C46.877 39.4846 47.032 39.735 47.2212 39.9309C47.4393 40.1567 47.7044 40.3123 47.9877 40.3746C48.2699 40.4369 48.5703 40.4096 48.8258 40.2786C49.1935 40.0905 49.4682 39.6922 49.7344 39.3095C49.9461 39.0046 50.1524 38.7088 50.3469 38.4001C50.5949 38.007 50.8237 37.5931 51.0781 37.1909C51.1807 37.0288 51.2876 36.8692 51.3742 36.7044C51.417 36.6214 51.4544 36.5384 51.4811 36.432C51.5046 36.3308 51.5185 36.2102 51.5955 36.1842C51.6105 36.179 51.6286 36.1777 51.6425 36.1842C51.6703 36.1972 51.6767 36.2452 51.6821 36.2919C51.7163 36.5773 51.6885 36.7927 51.6671 37.0197C51.6147 37.5646 51.5944 38.1717 51.5688 38.7672C51.5164 39.9815 51.4416 41.1478 51.3764 42.3284C51.3218 43.2936 51.2748 44.2666 51.2096 45.2384C51.1091 46.7536 50.968 48.2612 50.828 49.7687C50.6313 51.8963 50.4389 54.0252 50.2571 56.1594C50.1396 57.5527 50.0262 58.9474 50.0433 60.3459C50.0519 61.0024 50.0882 61.6588 50.1385 62.3101C50.1663 62.6746 50.1994 63.0379 50.2336 63.4076C50.2464 63.5387 50.2582 63.671 50.3117 63.789C50.3523 63.876 50.4153 63.9551 50.4912 63.9849C50.5757 64.0187 50.6772 63.9927 50.7542 63.9369C50.8953 63.8357 50.9584 63.6373 51.015 63.4453C51.1284 63.0586 51.2149 62.6954 51.2983 62.3256C51.4352 61.7198 51.5656 61.0945 51.6586 60.464C51.7922 59.5584 51.8478 58.6438 51.9151 57.7305C52.0007 56.5603 52.1054 55.3926 52.2123 54.225C52.3288 52.9433 52.4475 51.6628 52.5811 50.3836C52.7479 48.7723 52.9371 47.1636 53.0825 45.5484C53.2225 43.9955 53.3208 42.4361 53.4106 40.8754C53.5133 39.0721 53.6041 37.2688 53.7378 35.4681C53.8222 34.3381 53.9227 33.2081 53.9836 32.0755C53.9986 31.794 54.0114 31.5125 53.9836 31.2297C53.9761 31.157 53.9665 31.0831 53.9462 31.0156C53.9013 30.8703 53.8062 30.7535 53.7142 30.6394C53.5678 30.4577 53.4256 30.2852 53.2642 30.136C53.2022 30.0789 53.137 30.0244 53.0643 29.9881C52.9617 29.9375 52.8441 29.9219 52.735 29.9492C52.6239 29.979 52.5212 30.0543 52.4357 30.1451C52.1877 30.4045 52.0669 30.7912 51.9354 31.1635C51.5399 32.2792 51.045 33.2574 50.5479 34.3005C50.1588 35.1165 49.7686 35.9714 49.3528 36.6759C49.1486 37.0223 48.938 37.3324 48.6483 37.7436C48.5532 37.8785 48.4484 38.0251 48.3447 38.0031C48.2667 37.9875 48.1876 37.8733 48.1491 37.7566C48.0711 37.5231 48.1555 37.2805 48.1277 37.0677C48.0989 36.8484 47.9513 36.659 47.8134 36.4696C47.6317 36.2192 47.465 35.9675 47.2415 35.8456C47.0096 35.7185 46.7145 35.7327 46.4419 35.8145C46.0122 35.9455 45.6359 36.2465 45.3067 36.4735C45.0106 36.6785 44.7529 36.8238 44.2388 36.925C44.0485 36.9613 43.8229 36.9924 43.8208 36.9289C43.8186 36.8796 43.948 36.7771 44.0666 36.6824C44.7059 36.1751 45.0726 35.926 45.5023 35.5511C45.8369 35.2579 46.2089 34.8882 46.5061 34.4886C46.613 34.3446 46.7113 34.1954 46.7851 34.0125C46.8236 33.9152 46.8567 33.8075 46.8524 33.7128C46.8428 33.4728 46.598 33.3145 46.4099 33.1367C46.2623 32.9979 46.1501 32.8487 46.0165 32.7514C45.6071 32.4479 45.0106 32.6347 44.4568 32.8033C43.3419 33.1406 42.398 33.3975 41.3995 33.6829C40.7218 33.8762 40.0173 34.0825 39.3343 34.3316C38.7666 34.5379 38.2129 34.774 37.6335 34.9258C37.5223 34.9543 37.4112 34.9803 37.3 34.9894Z" fill="black"/>
<path d="M96.2029 39.4514C95.9892 38.3171 95.5281 37.2726 94.8196 36.3179C94.111 35.3633 93.2056 34.594 92.1035 34.0099C91.0013 33.4259 89.7754 33.1339 88.4258 33.1339C86.8062 33.1339 85.3385 33.5607 84.0226 34.4143C82.7068 35.2566 81.6552 36.4976 80.8679 38.1374C80.0919 39.7771 79.7039 41.7313 79.7039 44C79.7039 46.2799 80.0919 48.2397 80.8679 49.8795C81.644 51.5192 82.6899 52.7603 84.0058 53.6026C85.3329 54.4449 86.8062 54.8661 88.4258 54.8661C89.7754 54.8661 90.9957 54.5741 92.0866 53.9901C93.1888 53.406 94.0941 52.6367 94.8027 51.6821C95.5225 50.7274 95.9892 49.6885 96.2029 48.5654H97.9911C97.7325 49.9693 97.187 51.2834 96.3547 52.5076C95.5225 53.7205 94.4259 54.6976 93.0651 55.4389C91.7042 56.1689 90.1578 56.5339 88.4258 56.5339C86.3901 56.5339 84.5794 56.0173 82.9936 54.984C81.419 53.9395 80.1931 52.4739 79.3159 50.587C78.4386 48.689 78 46.4933 78 44C78 41.4955 78.4386 39.2998 79.3159 37.413C80.1931 35.5149 81.419 34.0493 82.9936 33.016C84.5794 31.9827 86.3901 31.4661 88.4258 31.4661C90.1465 31.4661 91.6873 31.8311 93.0482 32.5611C94.4203 33.2912 95.5225 34.2626 96.3547 35.4756C97.187 36.6886 97.7325 38.0138 97.9911 39.4514H96.2029Z" fill="black"/>
<path d="M125.029 31.803H126.767V43.2082H141.191V31.803H142.945V56.197H141.191V44.7749H126.767V56.197H125.029V31.803Z" fill="black"/>
<path d="M173.037 56.197H171.299V31.803H173.037V56.197Z" fill="black"/>
<path d="M202.319 56.197V54.5797H208.19C210.327 54.5797 212.126 54.1585 213.588 53.3162C215.062 52.4739 216.175 51.2553 216.929 49.6605C217.682 48.0657 218.048 46.1564 218.025 43.9326C218.025 41.7426 217.665 39.8557 216.945 38.2721C216.237 36.6886 215.18 35.4812 213.774 34.6501C212.379 33.819 210.681 33.4035 208.679 33.4035H202.251V31.803H208.763C211.069 31.803 213.043 32.286 214.685 33.2518C216.338 34.2065 217.598 35.5991 218.464 37.4298C219.33 39.2492 219.763 41.4168 219.763 43.9326C219.763 46.4933 219.307 48.6946 218.396 50.5365C217.496 52.3672 216.186 53.7711 214.465 54.7482C212.756 55.714 210.692 56.197 208.274 56.197H202.319ZM203.112 56.197H201.374V31.803H203.112V56.197Z" fill="black"/>
</svg>
